<svg width="24.000000pt" height="18.000000pt" viewBox="0 0 24.000000 18.000000" xmlns="http://www.w3.org/2000/svg">
  <g transform="translate(0.000000,18.000000) scale(0.100000,-0.100000)" fill="#fefefb" fill-opacity="0" stroke="none">
    <path d="M0 90 l0 -90 120 0 120 0 0 90 0 90 -120 0 -120 0 0 -90z m139 -7
c-8 -9 -22 -26 -32 -36 l-18 -18 -35 26 c-39 30 -46 45 -9 21 32 -21 48 -20
70 4 10 11 22 20 28 20 l9 0 -13 -17z" />
  </g>
  <g transform="translate(0.000000,18.000000) scale(0.100000,-0.100000)" fill="#000" stroke="none">
    <path d="M200 163 c-14 -9 -46 -34 -72 -55 l-46 -38 -31 17 -30 18 -11 -11
-11 -11 50 -43 c28 -23 51 -37 51 -31 0 6 8 19 18 29 9 10 33 39 52 65 19 25
43 49 53 52 9 4 17 11 17 16 0 13 -12 11 -40 -8z" />
  </g>
</svg>