<svg width="15" height="13" viewBox="0 0 15 13" fill="none" xmlns="http://www.w3.org/2000/svg">
<path d="M6.81092 1.43824C7.13894 0.581797 8.3506 0.581797 8.67862 1.43824L9.74826 4.23102C9.89643 4.6179 10.2678 4.87336 10.6821 4.87336L13.7456 4.87336C14.7535 4.87336 15.1283 6.19577 14.2703 6.72464L12.0901 8.06838C11.6809 8.32063 11.5091 8.82839 11.681 9.27733L12.5772 11.6173C12.9193 12.5104 11.9328 13.3281 11.1187 12.8263L8.26947 11.0701C7.94777 10.8718 7.54177 10.8718 7.22007 11.0701L4.37088 12.8263C3.55673 13.3281 2.57027 12.5104 2.91233 11.6173L3.80854 9.27733C3.98049 8.82839 3.80864 8.32063 3.39939 8.06838L1.21929 6.72464C0.361233 6.19577 0.73604 4.87336 1.74399 4.87336L4.80744 4.87336C5.22172 4.87336 5.59311 4.6179 5.74128 4.23102L6.81092 1.43824Z" fill="#F9896B"/>
</svg>
