<svg width="21" height="25" fill="none" xmlns="http://www.w3.org/2000/svg"><path d="M10.461 24.842c.402-.04.782-.2 1.088-.46l8.215-6.985a1.934 1.934 0 00.262-2.777 1.963 1.963 0 00-2.805-.17l-6.943 5.906-6.943-5.906a1.968 1.968 0 00-2.806.17 1.934 1.934 0 00.263 2.777l8.215 6.984a1.97 1.97 0 001.454.461zm0-13.014c.402-.04.782-.2 1.088-.461l8.215-6.985a1.934 1.934 0 00.262-2.776 1.964 1.964 0 00-2.805-.17L10.278 7.34 3.335 1.436a1.967 1.967 0 00-2.806.17 1.934 1.934 0 00.263 2.777l8.215 6.984c.401.342.927.508 1.454.46z" fill="#fff"/></svg>