<svg width="25" height="53" fill="none" xmlns="http://www.w3.org/2000/svg"><g filter="url(#filter0_d)"><path fill-rule="evenodd" clip-rule="evenodd" d="M4.84 21.23c0-13.095 5.472-20.16 7.71-20.16 2.238 0 7.71 7.065 7.71 20.16 0 13.232-4.788 22.202-4.991 22.578l-.198.365h-5.043l-.198-.365c-.203-.376-4.99-9.346-4.99-22.578zm7.01-18.315zm0 0v21.792h1.4V2.915c1.795 1.589 5.608 7.368 5.608 18.316 0 3.653-.387 6.986-.94 9.898-.81-1.146-2.302-2.705-5.02-4.245-6.606-3.745-6.526-8.888-6.52-9.105h-.002c.688-8.727 3.879-13.45 5.473-14.864zm-5.47 21.96a50.99 50.99 0 01-.115-2.528c1.003 1.847 2.781 3.955 5.938 5.745 4.486 2.544 5.255 5.06 5.274 5.124a52.343 52.343 0 01-1.097 4.027c-.59-1.037-1.63-2.313-3.469-3.4-5.535-3.268-6.41-8.012-6.532-8.967zm6.87 17.908h.97c.278-.57.842-1.79 1.484-3.546-.137-.58-.792-2.593-3.512-4.2-2.472-1.461-4.098-3.2-5.172-4.831 1.148 6.67 3.23 11.287 3.86 12.577h.97v-4.867h1.4v4.867z" fill="#fff"/><path d="M12.55 1.07V.943v.125zm2.719 42.738l.11.06-.11-.06zm-.198.365v.125h.074l.036-.066-.11-.06zm-5.043 0l-.11.06.036.065h.074v-.125zm-.198-.365l-.11.06.11-.06zm2.02-40.893l-.04-.118-.086.028v.09h.125zm0 0l.082.094-.123-.212.04.118zm0 21.792h-.126v.125h.125v-.125zm1.4 0v.125h.126v-.125h-.125zm0-21.792l.084-.094-.208-.184v.278h.125zm4.67 28.215l-.102.072.17.24.054-.289-.122-.023zm-5.02-4.245l-.062.11.062-.11zM6.377 17.78l.125.003.004-.128h-.129v.125zm-.001 0l-.125-.01-.01.135h.135v-.125zm-.11 4.568l.11-.06-.236.063.125-.003zm.113 2.529l-.125.009.001.007.124-.016zm5.824 3.216l-.062.11.062-.11zm5.274 5.124l-.12.036.12-.036zm0 0l.122.029.007-.033-.01-.032-.119.036zm-1.097 4.027l-.108.062.141.249.086-.273-.119-.038zm-3.469-3.4l.064-.107-.064.108zm1.309 8.94v.125h.217l-.11-.188-.107.063zm-.97 0h-.124v.125h.125v-.125zm.97 0l-.113-.056-.029.06.034.058.108-.063zm1.484-3.546l.117.042.013-.035-.009-.036-.121.029zm-3.512-4.2l-.063.108.063-.108zM7.02 30.207l.105-.069-.228.09.123-.021zm3.86 12.577l-.112.054.034.07h.078v-.124zm.97 0v.125h.124v-.125h-.125zm0-4.867v-.125h-.126v.125h.125zm1.4 0h.126v-.125h-.125v.125zM12.55.944c-.311 0-.664.122-1.038.348-.376.226-.782.56-1.201 1-.839.878-1.74 2.182-2.568 3.893-1.656 3.422-3.028 8.48-3.028 15.045h.25c0-6.53 1.365-11.551 3.003-14.936.82-1.693 1.707-2.974 2.524-3.83.408-.427.797-.747 1.148-.958.354-.213.661-.312.91-.312v-.25zm7.834 20.287c0-6.566-1.371-11.625-3.028-15.046-.828-1.71-1.729-3.015-2.567-3.893-.42-.44-.825-.774-1.201-1-.374-.226-.727-.348-1.038-.348v.25c.248 0 .556.1.91.312.35.211.74.53 1.148.958.817.856 1.704 2.137 2.523 3.83 1.639 3.384 3.003 8.406 3.003 14.936h.25zM15.38 43.867c.208-.385 5.005-9.376 5.005-22.636h-.25c0 13.202-4.777 22.151-4.975 22.517l.22.12zm-.198.365l.198-.365-.22-.119-.198.365.22.12zm-5.152.066h5.042v-.25h-5.043v.25zm-.308-.43l.198.364.22-.119-.199-.365-.22.12zM4.715 21.23c0 13.26 4.797 22.252 5.006 22.637l.22-.119c-.199-.366-4.976-9.315-4.976-22.517h-.25zm7.01-18.315h.25-.25zm.085-.118l.08.237-.08-.237zm.122.212l-.166-.188.166.188zm.042 21.698V2.915h-.25v21.792h.25zm1.277-.125h-1.402v.25h1.402v-.25zm-.125-21.667v21.792h.25V2.915h-.25zm5.857 18.316c0-10.974-3.822-16.791-5.65-18.41l-.165.188c1.761 1.559 5.565 7.3 5.565 18.222h.25zm-.942 9.921c.554-2.918.942-6.26.942-9.921h-.25c0 3.644-.387 6.97-.937 9.874l.245.047zm-5.204-4.159c2.703 1.532 4.18 3.079 4.98 4.208l.204-.145c-.823-1.16-2.328-2.732-5.06-4.28l-.124.217zm-6.585-9.217c-.006.244-.076 5.44 6.585 9.217l.123-.217c-6.552-3.715-6.462-8.804-6.458-8.994l-.25-.006zm.124.128h.001v-.25h-.001v.25zm5.39-15.082c-1.624 1.44-4.824 6.197-5.515 14.947l.25.02c.686-8.703 3.867-13.394 5.431-14.78l-.166-.187zM6.14 22.35c.02.861.055 1.708.115 2.535l.249-.018a50.855 50.855 0 01-.114-2.523l-.25.006zm6.125 5.634c-3.137-1.779-4.899-3.87-5.89-5.697l-.22.12c1.014 1.868 2.81 3.993 5.986 5.794l.124-.217zm5.331 5.195c-.028-.093-.816-2.635-5.331-5.195l-.124.217c4.458 2.528 5.206 5.017 5.216 5.051l.24-.073zm0 0l-.239.073v.001l.24-.073zM16.5 37.282a52.475 52.475 0 001.1-4.036l-.244-.057a52.221 52.221 0 01-1.094 4.018l.238.075zm-3.652-3.33c1.818 1.075 2.844 2.334 3.425 3.354l.217-.123c-.6-1.055-1.656-2.348-3.514-3.446l-.128.216zm-6.592-9.06c.125.977 1.011 5.764 6.593 9.06l.127-.215c-5.49-3.242-6.352-7.941-6.472-8.876l-.248.032zm7.965 17.767h-.97v.25h.97v-.25zm-.109.187l.217-.125-.216.125zm1.475-3.651a37.57 37.57 0 01-1.479 3.533l.225.11c.28-.573.846-1.797 1.49-3.558l-.236-.085zm-3.457-4.049c2.683 1.585 3.322 3.567 3.453 4.12l.243-.057c-.142-.604-.814-2.651-3.569-4.278l-.127.215zm-5.213-4.87c1.084 1.645 2.723 3.398 5.213 4.87l.127-.215c-2.455-1.451-4.067-3.177-5.131-4.793l-.21.138zm4.076 12.453c-.627-1.282-2.704-5.889-3.849-12.543l-.246.042c1.15 6.684 3.236 11.314 3.87 12.61l.226-.11zm.857-.07h-.969v.25h.97v-.25zm-.125-4.742v4.867h.25v-4.867h-.25zm1.527-.125H11.85v.25h1.402v-.25zm.125 4.992v-4.867h-.25v4.867h.25z" fill="#000"/></g><defs><filter id="filter0_d" x=".715" y=".944" width="23.669" height="51.353" filterUnits="userSpaceOnUse" color-interpolation-filters="sRGB"><feFlood flood-opacity="0" result="BackgroundImageFix"/><feColorMatrix in="SourceAlpha" values="0 0 0 0 0 0 0 0 0 0 0 0 0 0 0 0 0 0 127 0"/><feOffset dy="4"/><feGaussianBlur stdDeviation="2"/><feColorMatrix values="0 0 0 0 0 0 0 0 0 0 0 0 0 0 0 0 0 0 0.25 0"/><feBlend in2="BackgroundImageFix" result="effect1_dropShadow"/><feBlend in="SourceGraphic" in2="effect1_dropShadow" result="shape"/></filter></defs></svg>