<svg width="52" height="33" fill="none" xmlns="http://www.w3.org/2000/svg"><path fill-rule="evenodd" clip-rule="evenodd" d="M49.874 21.717v2.75a1.25 1.25 0 011.01 1.213v.989c0 .6-.434 1.099-1.01 1.215v.025h-6.625c-.367 2.242-2.344 3.963-4.729 3.963-2.385 0-4.362-1.72-4.727-3.963H16.252c-.367 2.242-2.344 3.963-4.73 3.963-2.384 0-4.363-1.723-4.728-3.963h-3.85l-.755.002a1.253 1.253 0 01-1.263-1.24v-.99c0-.684.568-1.24 1.263-1.24h.755V13.298c0-3.415 2.831-6.194 6.31-6.194l5.823-.003V5.125C8.935 4.55 3.73 3.476 2.157 1.93a.73.73 0 01-.137-.868.761.761 0 01.804-.387c5.023.882 12.833 1 19.807 1 1.482 0 2.939-.004 4.338-.01.356 0 .709-.002 1.057-.003.922-.003 1.816-.006 2.673-.006l6.497.002h.002c4.397 0 7.106-.03 10.618-.198a.764.764 0 01.765.538.739.739 0 01-.357.853c-.506.279-1.137.538-1.884.778v1.504c0 .67-.363 1.248-.972 1.55-.258.127-.53.191-.8.191a1.77 1.77 0 01-1.047-.346L41.079 4.75c-3.11.445-6.962.727-11.39.828v1.528l5.297-.002a15 15 0 018.987 2.972l.207.16a14.685 14.685 0 014.703 6.247l.006.011.014.033c.013.039.028.076.043.113.013.032.026.064.037.096l.302.768h-.043c.41 1.336.632 2.75.632 4.213zM35.997 16.02H47.03a13.266 13.266 0 00-3.585-4.458h-7.447a.254.254 0 00-.253.248v3.963c0 .133.117.247.253.247zm8.831-10.887a.23.23 0 01-.14.222.236.236 0 01-.264-.023l-1.27-.923a33.734 33.734 0 001.674-.358v1.082zM25.997 3.156c-1.097.004-2.222.007-3.364.007-4.48 0-9.305-.05-13.545-.32 4.072.755 9.929 1.29 16.818 1.29 6.33 0 11.868-.364 15.887-1.005-1.37.016-2.85.021-4.593.021h-.002L30.7 3.144c-1.179 0-2.426.003-3.723.01l-.98.002zM16.59 5.258c3.038.238 6.243.36 9.314.36.77 0 1.528-.006 2.27-.015v1.501H16.592V5.258zM8.243 27.166c0 1.776 1.47 3.22 3.28 3.22 1.81 0 3.28-1.444 3.28-3.22 0-1.776-1.47-3.22-3.28-3.22-1.81 0-3.28 1.444-3.28 3.22zm30.277 3.22c-1.809 0-3.28-1.444-3.28-3.22 0-1.776 1.471-3.22 3.28-3.22 1.81 0 3.28 1.444 3.28 3.22 0 1.776-1.47 3.22-3.28 3.22zm0-7.926c2.386 0 4.365 1.72 4.73 3.963h6.12v-.495h-4.542v-1.486h3.532v-2.723c0-1.474-.252-2.889-.71-4.212H35.998c-.974 0-1.766-.778-1.766-1.734V11.81c0-.956.792-1.733 1.766-1.733h5.159a13.504 13.504 0 00-6.17-1.486H9.255c-2.646 0-4.796 2.113-4.796 4.707v2.723h7.604v1.486H4.46v6.935h1.009v1.486H2.44v.495h4.355c.366-2.243 2.343-3.963 4.728-3.963 2.386 0 4.364 1.72 4.73 3.963h17.539c.366-2.243 2.343-3.963 4.728-3.963z" fill="#fff"/><path d="M49.874 24.466l.083.289.217-.063v-.226h-.3zm0 0l-.083-.288.024.583.059-.294zm0 3.418l-.06-.294-.24.048v.246h.3zm0 .025v.3h.3v-.3h-.3zm-6.625 0v-.3h-.255l-.041.251.296.049zm-9.456 0l.296-.048-.04-.252h-.256v.3zm-17.541 0v-.3h-.255l-.041.251.296.049zm-9.458 0l.296-.048-.04-.252h-.256v.3zm-3.85 0v-.3.3zm-.755.002v.3h.001v-.3zm.755-3.47v.3h.3v-.3h-.3zm6.31-17.337v.3-.3zm5.823-.003v.3h.3v-.3h-.3zm0-1.976h.3v-.273l-.272-.026-.028.299zM2.157 1.93l.21-.214h-.002l-.209.214zm-.137-.868L1.756.92l.264.142zm.804-.387L2.772.97l.052-.295zm24.145.99v-.3h-.001l.001.3zm1.057-.003l-.001-.3v.3zm0 0v-.3.3zm0 0l.001.3v-.3zm2.673-.006v-.3.3zm6.497.002v.3-.3zm10.62-.198l-.012-.3h-.002l.014.3zm.765.538l.288-.084-.288.084zm-.357.853l.145.263-.145-.263zm-1.884.778l-.092-.285-.208.066v.22h.3zm-.972 3.054l.133.268-.133-.268zm-1.847-.155l.177-.243-.177.243zM41.079 4.75l.176-.243-.098-.072-.12.018.042.297zm-11.39.828l-.006-.3-.293.007v.293h.3zm0 1.528h-.3v.3h.3v-.3zm5.297-.002v-.3.3zm8.987 2.972l.182-.238-.003-.002-.18.24zm.207.16l.183-.238v-.001l-.183.238zm4.703 6.247l-.28.11.006.013.007.013.267-.136zm.006.011l.276-.116-.004-.01-.005-.01-.267.136zm.014.033l.282-.1-.003-.008-.003-.008-.276.116zm.043.113l.279-.11-.279.11zm.037.096l-.281.104.002.006.28-.11zm.302.768v.3h.44l-.16-.41-.28.11zm-.043 0v-.3h-.406l.119.389.287-.088zM47.03 16.02v.3h.483l-.214-.433-.269.133zm-3.585-4.458l.188-.234-.083-.066h-.105v.3zm1.243-6.207l.132.27-.132-.27zm.14-.222h-.3.3zm-.404.199l.177-.242-.177.242zm-1.27-.923l-.055-.295-.683.129.562.409.177-.243zm1.674-.358h.3V3.67l-.37.09.07.291zm-22.195-.888l-.027-.299.027.599v-.3zm3.364-.007l-.001-.3v.3zm-3.363.007l.026.299-.026-.6v.3zm-13.546-.32l.019-.299-.074.595.055-.295zm32.705.285l.047.296-.05-.596.003.3zm-4.595.021v.3-.3zM30.7 3.144v-.3.3zm-3.723.01v.3h.001l-.001-.3zM16.59 5.257l.024-.299-.324-.025v.324h.3zm11.585.345h.3v-.304l-.304.004.004.3zm0 1.501v.3h.3v-.3h-.3zm-11.585 0h-.3v.3h.3v-.3zm26.66 19.32l-.296.048.041.252h.255v-.3zm6.12 0v.3h.3v-.3h-.3zm0-.495h.3v-.3h-.3v.3zm-4.54 0h-.3v.3h.3v-.3zm0-1.486v-.3h-.3v.3h.3zm3.531 0v.3h.3v-.3h-.3zm-.71-6.935l.284-.098-.07-.202h-.213v.3zm-6.494-7.43v.3l.137-.567-.137.267zM4.459 16.02h-.3v.3h.3v-.3zm7.604 0h.3v-.3h-.3v.3zm0 1.486v.3h.3v-.3h-.3zm-7.604 0v-.3h-.3v.3h.3zm0 6.935h-.3v.3h.3v-.3zm1.009 0h.3v-.3h-.3v.3zm0 1.486v.3h.3v-.3h-.3zm-3.028 0v-.3h-.3v.3h.3zm0 .495h-.3v.3h.3v-.3zm4.355 0v.3h.254l.042-.252-.296-.048zm9.457 0l-.296.048.041.252h.255v-.3zm17.54 0v.3h.255l.04-.252-.295-.048zm16.382-1.957v-2.75h-.6v2.75h.6zm-.217.289l-.166-.577.166.577zm1.226.925c0-.746-.541-1.365-1.25-1.508l-.118.589a.948.948 0 01.768.919h.6zm0 .989v-.99h-.6v.99h.6zm-1.25 1.509a1.547 1.547 0 001.25-1.51h-.6c0 .45-.326.832-.768.922l.118.588zm.241-.27v-.024h-.6v.025h.6zm-6.925.3h6.625v-.6h-6.625v.6zm-4.729 3.964c2.531 0 4.634-1.826 5.025-4.215l-.592-.097c-.343 2.097-2.194 3.712-4.433 3.712v.6zm-5.023-4.215c.389 2.389 2.492 4.215 5.023 4.215v-.6c-2.239 0-4.09-1.615-4.43-3.711l-.593.096zm-17.245.252h17.541v-.6H16.252v.6zm-4.73 3.963c2.532 0 4.635-1.826 5.026-4.215l-.592-.097c-.343 2.097-2.194 3.712-4.433 3.712v.6zm-5.024-4.215c.388 2.387 2.494 4.215 5.025 4.215v-.6c-2.24 0-4.092-1.617-4.433-3.711l-.592.096zm-3.554.252h3.85v-.6h-3.85v.6zm-.754.002l.755-.002-.001-.6-.755.002.001.6zM.626 26.67c0 .853.705 1.54 1.563 1.54v-.6a.953.953 0 01-.963-.94h-.6zm0-.99v.99h.6v-.99h-.6zm1.563-1.54c-.856 0-1.563.685-1.563 1.54h.6c0-.513.428-.94.963-.94v-.6zm.755 0H2.19v.6h.755v-.6zm-.3-10.843V24.44h.6V13.298h-.6zm6.61-6.494c-3.64 0-6.61 2.908-6.61 6.494h.6c0-3.244 2.691-5.894 6.01-5.894v-.6zm5.823-.003l-5.823.003v.6l5.823-.003v-.6zm-.3-1.676V7.1h.6V5.125h-.6zM1.946 2.145c.435.426 1.097.801 1.917 1.134.824.335 1.83.636 2.972.905 2.284.538 5.135.952 8.214 1.24l.056-.598C12.042 4.54 9.22 4.13 6.973 3.6c-1.124-.265-2.098-.558-2.884-.877-.791-.321-1.37-.66-1.723-1.007l-.42.428zM1.756.92a1.03 1.03 0 00.19 1.225l.42-.43a.43.43 0 01-.081-.512L1.755.92zm1.12-.54a1.06 1.06 0 00-1.12.54l.528.283A.461.461 0 012.772.97l.105-.59zm19.755.995c-6.98 0-14.763-.119-19.755-.996L2.772.97c5.054.888 12.891 1.005 19.859 1.005v-.6zm4.337-.01c-1.4.006-2.856.01-4.337.01v.6c1.482 0 2.94-.004 4.34-.01l-.003-.6zm1.057-.003l-1.057.003.002.6c.356 0 .709-.002 1.057-.003l-.002-.6zm0 0l.002.6-.002-.6zm0 0l.002.6-.002-.6zm2.674-.006c-.858 0-1.752.003-2.674.006l.002.6c.922-.003 1.815-.006 2.672-.006v-.6zm6.497.002l-6.497-.002v.6l6.496.002v-.6zm.002 0h-.002v.6h.002v-.6zm10.604-.197c-3.506.168-6.208.197-10.605.197v.6c4.4 0 7.114-.03 10.633-.198l-.028-.6zm1.067.753a1.064 1.064 0 00-1.065-.754l.024.6a.464.464 0 01.465.322l.576-.168zm-.5 1.2c.427-.235.636-.732.5-1.2l-.576.168a.439.439 0 01-.214.507l.29.525zm-1.938.8c.76-.243 1.41-.51 1.938-.8l-.29-.525c-.484.266-1.096.518-1.831.755l.184.57zm.209 1.219V3.629h-.6v1.504h.6zM45.5 6.95a2.001 2.001 0 001.139-1.818h-.6c0 .553-.296 1.029-.805 1.28l.266.538zm-.933.223a2.1 2.1 0 00.933-.223l-.266-.537a1.5 1.5 0 01-.667.16v.6zm-1.224-.404a2.07 2.07 0 001.224.404v-.6a1.47 1.47 0 01-.87-.289l-.354.485zm-2.442-1.778l2.442 1.778.354-.485-2.443-1.778-.353.485zm-11.206.886c4.435-.101 8.3-.384 11.425-.831l-.085-.594c-3.095.442-6.934.724-11.353.825l.013.6zm.293 1.228V5.578h-.6v1.528h.6zm4.997-.302l-5.297.002v.6l5.297-.002v-.6zm9.166 3.032a15.289 15.289 0 00-9.166-3.032v.6c3.308 0 6.358 1.087 8.807 2.913l.359-.481zm.21.161l-.207-.159-.365.477.207.158.365-.476zm4.8 6.376a14.985 14.985 0 00-4.799-6.375l-.367.475a14.386 14.386 0 014.608 6.12l.558-.22zm-.006-.015l-.006-.011-.534.272.005.012.535-.273zm.023.053l-.014-.033-.553.232.014.033.553-.232zm.046.118a2.79 2.79 0 01-.04-.103l-.565.203.047.123.558-.223zm.04.104a4.026 4.026 0 00-.04-.104l-.558.223c.014.032.025.06.035.088l.563-.207zm.3.762l-.302-.768-.559.219.302.768.558-.22zm-.323.41h.043v-.6h-.043v.6zm.932 3.912c0-1.493-.227-2.938-.646-4.3l-.573.176a14.03 14.03 0 01.62 4.124h.6zM47.03 15.72H35.998v.6H47.03v-.6zm0 0v.6-.6zm-3.773-3.924a12.964 12.964 0 013.504 4.357l.538-.265a13.564 13.564 0 00-3.666-4.56l-.376.468zm-7.26.066h7.448v-.6h-7.447v.6zm.048-.052a.056.056 0 01-.014.04.046.046 0 01-.033.012v-.6a.554.554 0 00-.553.548h.6zm0 3.963V11.81h-.6v3.963h.6zm-.047-.053a.05.05 0 01.033.012.055.055 0 01.014.04h-.6c0 .305.256.548.553.548v-.6zM44.82 5.624a.549.549 0 00.228-.2.544.544 0 00.08-.291h-.6l.001-.004a.08.08 0 01.01-.023.081.081 0 01.016-.019c.004-.003.005-.003.001-.001l.264.538zm-.573-.05c.077.056.17.1.279.109a.553.553 0 00.294-.059l-.264-.538c-.005.002-.005.001 0 0a.079.079 0 01.045.004c.005.002.005.003 0 0l-.354.484zm-1.269-.922l1.27.923.352-.486-1.269-.923-.353.486zm1.78-.893a33.42 33.42 0 01-1.659.355l.111.59c.6-.113 1.163-.234 1.689-.361l-.141-.584zm.37 1.374V4.05h-.6v1.082h.6zm-22.495-1.67c1.142 0 2.268-.003 3.365-.007l-.002-.6c-1.097.004-2.222.007-3.363.007v.6zm-.026-.599l.053.598-.053-.598zm-13.538.279c4.25.27 9.083.32 13.565.32v-.6c-4.48 0-9.298-.05-13.527-.319l-.038.599zm16.836.69c-6.875 0-12.713-.534-16.763-1.284l-.109.59c4.095.758 9.97 1.293 16.873 1.293v-.6zm15.84-1.001c-3.997.637-9.518 1-15.84 1v.6c6.34 0 11.895-.364 15.935-1.008l-.094-.592zm-4.545.617c1.743 0 3.225-.005 4.596-.02l-.007-.6c-1.368.015-2.847.02-4.589.02v.6zm-.002 0h.002v-.6h-.002v.6zm-6.5-.005l6.5.005v-.6L30.7 2.844v.6zm-3.721.01c1.297-.007 2.544-.01 3.722-.01v-.6c-1.18 0-2.428.003-3.725.01l.003.6zm-.98.002l.98-.003-.002-.6-.98.003.003.6zm-.092 1.862c-3.063 0-6.26-.121-9.29-.359l-.047.598c3.046.24 6.258.361 9.337.361v-.6zm2.267-.015c-.742.01-1.498.015-2.267.015v.6c.772 0 1.53-.006 2.275-.015l-.008-.6zm.304 1.801V5.603h-.6v1.501h.6zm-11.885.3h11.585v-.6H16.59v.6zm-.3-2.146v1.846h.6V5.258h-.6zm-4.768 24.828c-1.649 0-2.98-1.315-2.98-2.92h-.6c0 1.947 1.61 3.52 3.58 3.52v-.6zm2.98-2.92c0 1.605-1.33 2.92-2.98 2.92v.6c1.97 0 3.58-1.573 3.58-3.52h-.6zm-2.98-2.92c1.65 0 2.98 1.315 2.98 2.92h.6c0-1.947-1.61-3.52-3.58-3.52v.6zm-2.98 2.92c0-1.605 1.331-2.92 2.98-2.92v-.6c-1.97 0-3.58 1.573-3.58 3.52h.6zm26.398 0c0 1.947 1.61 3.52 3.58 3.52v-.6c-1.65 0-2.98-1.315-2.98-2.92h-.6zm3.58-3.52c-1.97 0-3.58 1.573-3.58 3.52h.6c0-1.605 1.33-2.92 2.98-2.92v-.6zm3.58 3.52c0-1.947-1.61-3.52-3.58-3.52v.6c1.649 0 2.98 1.315 2.98 2.92h.6zm-3.58 3.52c1.97 0 3.58-1.573 3.58-3.52h-.6c0 1.605-1.331 2.92-2.98 2.92v.6zm5.024-4.311c-.388-2.389-2.493-4.215-5.025-4.215v.6c2.24 0 4.092 1.615 4.433 3.711l.592-.096zm5.825-.252h-6.12v.6h6.12v-.6zm-.3-.195v.495h.6v-.495h-.6zm-4.242.3h4.542v-.6h-4.542v.6zm-.3-1.786v1.486h.6v-1.486h-.6zm3.832-.3h-3.532v.6h3.532v-.6zm-.3-2.423v2.723h.6v-2.723h-.6zm-.693-4.114c.447 1.293.693 2.674.693 4.114h.6c0-1.509-.258-2.956-.726-4.31l-.567.196zm-11.37.202h11.654v-.6H35.997v.6zm-2.066-2.034c0 1.127.932 2.034 2.066 2.034v-.6c-.813 0-1.466-.649-1.466-1.434h-.6zm0-3.963v3.963h.6V11.81h-.6zm2.066-2.033c-1.134 0-2.066.907-2.066 2.033h.6c0-.785.653-1.433 1.466-1.433v-.6zm5.159 0h-5.159v.6h5.159v-.6zm-6.17-.886c2.174 0 4.227.527 6.033 1.453l.274-.534a13.804 13.804 0 00-6.307-1.52v.6zm-25.731 0h25.731v-.6H9.255v.6zm-4.496 4.407c0-2.424 2.01-4.407 4.496-4.407v-.6c-2.806 0-5.096 2.242-5.096 5.007h.6zm0 2.723v-2.723h-.6v2.723h.6zm7.304-.3H4.46v.6h7.604v-.6zm.3 1.786V16.02h-.6v1.486h.6zm-7.904.3h7.604v-.6H4.46v.6zm.3 6.635v-6.935h-.6v6.935h.6zm.709-.3h-1.01v.6h1.01v-.6zm.3 1.786v-1.486h-.6v1.486h.6zm-3.328.3h3.028v-.6H2.44v.6zm.3.195v-.495h-.6v.495h.6zm4.055-.3H2.44v.6h4.355v-.6zm4.728-3.963c-2.531 0-4.634 1.826-5.025 4.215l.593.096c.342-2.096 2.193-3.71 4.432-3.71v-.6zm5.025 4.215c-.388-2.389-2.493-4.215-5.025-4.215v.6c2.24 0 4.092 1.615 4.433 3.711l.592-.096zm17.244-.252h-17.54v.6h17.54v-.6zm4.728-3.963c-2.531 0-4.634 1.826-5.024 4.215l.592.096c.343-2.096 2.194-3.71 4.432-3.71v-.6z" fill="#222532"/><path fill-rule="evenodd" clip-rule="evenodd" d="M23.634 11.81v3.963c0 .956-.792 1.733-1.766 1.733h-5.046c-.974 0-1.766-.777-1.766-1.733V11.81c0-.956.792-1.734 1.766-1.734h5.046c.974 0 1.766.778 1.766 1.734zm-7.064 0v3.963c0 .135.116.247.252.247h5.046a.254.254 0 00.253-.247V11.81a.254.254 0 00-.253-.248h-5.046a.254.254 0 00-.252.248z" fill="#fff"/><path d="M23.934 15.773V11.81h-.6v3.963h.6zm-2.066 2.033c1.134 0 2.066-.907 2.066-2.033h-.6c0 .785-.652 1.433-1.466 1.433v.6zm-5.046 0h5.046v-.6h-5.046v.6zm-2.066-2.033c0 1.127.932 2.033 2.066 2.033v-.6c-.813 0-1.466-.648-1.466-1.433h-.6zm0-3.963v3.963h.6V11.81h-.6zm2.066-2.034c-1.134 0-2.066.907-2.066 2.034h.6c0-.785.653-1.434 1.466-1.434v-.6zm5.046 0h-5.046v.6h5.046v-.6zm2.066 2.034c0-1.127-.932-2.034-2.066-2.034v.6c.814 0 1.466.649 1.466 1.434h.6zm-7.064 3.963V11.81h-.6v3.963h.6zm-.048-.053c.015 0 .026.006.032.013.007.006.016.02.016.04h-.6c0 .308.257.547.552.547v-.6zm5.046 0h-5.046v.6h5.046v-.6zm-.047.053c0-.022.009-.035.014-.04a.046.046 0 01.033-.013v.6a.554.554 0 00.553-.547h-.6zm0-3.963v3.963h.6V11.81h-.6zm.047.052a.046.046 0 01-.033-.012.056.056 0 01-.015-.04h.6a.554.554 0 00-.552-.548v.6zm-5.046 0h5.046v-.6h-5.046v.6zm.048-.052c0 .022-.01.035-.015.04a.046.046 0 01-.033.012v-.6a.554.554 0 00-.552.548h.6z" fill="#222532"/><path fill-rule="evenodd" clip-rule="evenodd" d="M26.41 10.076h5.046c.974 0 1.766.778 1.766 1.734v3.963c0 .956-.792 1.733-1.766 1.733H26.41c-.974 0-1.767-.777-1.767-1.733V11.81c0-.956.793-1.734 1.767-1.734zm5.046 5.944a.254.254 0 00.252-.247V11.81a.254.254 0 00-.252-.248H26.41a.254.254 0 00-.253.248v3.963c0 .133.117.247.253.247h5.046z" fill="#fff"/><path d="M31.456 9.776H26.41v.6h5.046v-.6zm2.066 2.034c0-1.127-.932-2.034-2.066-2.034v.6c.813 0 1.466.649 1.466 1.434h.6zm0 3.963V11.81h-.6v3.963h.6zm-2.066 2.033c1.134 0 2.066-.907 2.066-2.033h-.6c0 .785-.653 1.433-1.466 1.433v.6zm-5.046 0h5.046v-.6H26.41v.6zm-2.067-2.033c0 1.127.933 2.033 2.067 2.033v-.6c-.814 0-1.466-.648-1.466-1.433h-.6zm0-3.963v3.963h.6V11.81h-.6zm2.067-2.034c-1.134 0-2.067.907-2.067 2.034h.6c0-.785.653-1.434 1.467-1.434v-.6zm4.998 5.997c0-.022.01-.035.015-.04a.046.046 0 01.033-.013v.6a.554.554 0 00.552-.547h-.6zm0-3.963v3.963h.6V11.81h-.6zm.048.052a.046.046 0 01-.033-.012.056.056 0 01-.015-.04h.6a.554.554 0 00-.552-.548v.6zm-5.046 0h5.046v-.6H26.41v.6zm.047-.052a.056.056 0 01-.014.04.046.046 0 01-.033.012v-.6a.554.554 0 00-.553.548h.6zm0 3.963V11.81h-.6v3.963h.6zm-.047-.053c.017 0 .027.007.033.012a.055.055 0 01.014.04h-.6c0 .305.256.548.553.548v-.6zm5.046 0H26.41v.6h5.046v-.6z" fill="#222532"/><path fill-rule="evenodd" clip-rule="evenodd" d="M36.502 27.166c0-1.094.905-1.982 2.018-1.982 1.114 0 2.019.89 2.019 1.982 0 1.093-.905 1.98-2.019 1.98-1.113 0-2.018-.887-2.018-1.98zm1.514 0c0 .272.227.495.505.495a.501.501 0 00.504-.495.501.501 0 00-.505-.496.501.501 0 00-.504.495z" fill="#fff"/><path d="M38.52 24.884c-1.274 0-2.318 1.017-2.318 2.282h.6c0-.923.765-1.682 1.718-1.682v-.6zm2.319 2.282c0-1.263-1.044-2.282-2.319-2.282v.6c.954 0 1.719.76 1.719 1.681h.6zm-2.319 2.28c1.275 0 2.319-1.016 2.319-2.28h-.6c0 .922-.765 1.68-1.718 1.68v.6zm-2.318-2.28c0 1.264 1.044 2.28 2.319 2.28v-.6c-.954 0-1.719-.758-1.719-1.68h-.6zm2.319.195a.201.201 0 01-.205-.195h-.6a.8.8 0 00.804.795v-.6zm.204-.195a.201.201 0 01-.205.195v.6a.801.801 0 00.805-.795h-.6zm-.205-.196c.118 0 .205.094.205.196h.6a.801.801 0 00-.805-.796v.6zm-.204.196c0-.102.087-.196.204-.196v-.6a.8.8 0 00-.804.796h.6z" fill="#222532"/><path fill-rule="evenodd" clip-rule="evenodd" d="M9.505 27.166c0-1.094.905-1.982 2.018-1.982 1.114 0 2.019.89 2.019 1.982 0 1.093-.905 1.98-2.018 1.98-1.114 0-2.019-.89-2.019-1.98zm1.514 0a.5.5 0 00.505.495.501.501 0 00.504-.495.501.501 0 00-.505-.496.5.5 0 00-.504.495z" fill="#fff"/><path d="M11.524 24.884c-1.275 0-2.319 1.017-2.319 2.282h.6c0-.923.765-1.682 1.719-1.682v-.6zm2.318 2.282c0-1.263-1.044-2.282-2.319-2.282v.6c.954 0 1.719.76 1.719 1.681h.6zm-2.319 2.28c1.275 0 2.319-1.016 2.319-2.28h-.6c0 .922-.765 1.68-1.719 1.68v.6zm-2.318-2.28c0 1.261 1.044 2.28 2.319 2.28v-.6c-.954 0-1.719-.76-1.719-1.68h-.6zm2.319.195a.201.201 0 01-.205-.195h-.6a.8.8 0 00.805.795v-.6zm.204-.195a.201.201 0 01-.204.195v.6a.801.801 0 00.804-.795h-.6zm-.204-.196c.117 0 .204.094.204.196h.6a.801.801 0 00-.804-.796v.6zm-.205.196c0-.102.087-.196.204-.196v-.6a.8.8 0 00-.804.796h.6z" fill="#222532"/><path d="M17.074 24.441h15.643v1.486H17.074v-1.486z" fill="#fff" stroke="#222532" stroke-width=".6"/></svg>