<svg width="61" height="47" fill="none" xmlns="http://www.w3.org/2000/svg"><path fill-rule="evenodd" clip-rule="evenodd" d="M59.767 43.211a.52.52 0 01-.036.083.173.173 0 01-.056.074l-.034.048a1.674 1.674 0 01-.078.097 1.415 1.415 0 01-.135.12 1.77 1.77 0 01-.107.065.682.682 0 01-.05.026.435.435 0 01-.063.025l-.027.01c-.019.008-.036.017-.057.022-.01.002-.017 0-.026.002a.904.904 0 01-.228.031c-.107 0-.145.017-.145.017-.043.05-.123.304-.173.464l-.005.016c-.185.594-.572 1.83-2.136 1.83-1.338 0-2.002-.89-2.489-1.54l-.003-.005c-.456-.615-.629-.782-.97-.782-.343 0-.513.166-.971.78l-.004.004c-.486.65-1.15 1.54-2.491 1.54-1.338 0-2.002-.89-2.489-1.54l-.003-.005c-.456-.613-.63-.779-.97-.779-.34 0-.514.166-.972.782-.484.65-1.15 1.544-2.492 1.544-1.34 0-2.005-.889-2.49-1.54l-.004-.004c-.456-.613-.63-.78-.971-.78-.342 0-.513.167-.97.78-.485.65-1.15 1.544-2.493 1.544-1.338 0-2.002-.889-2.489-1.54l-.003-.004c-.456-.613-.629-.78-.97-.78-.34 0-.514.167-.972.782-.484.651-1.15 1.545-2.492 1.545-1.338 0-2.002-.89-2.488-1.54l-.004-.005c-.456-.613-.629-.779-.97-.779-.34 0-.513.166-.971.782-.485.65-1.151 1.544-2.492 1.544-.425 0-.812-.173-1.085-.487-.662-.755-.53-2.043-.257-4.082l.005-.035c.098-.738.246-1.862.197-2.41-1.773.347-4.289 3.904-5.594 6.492a.947.947 0 01-.847.522c-.02 0-.038 0-.057-.002a.945.945 0 01-.836-.623c-.218-.604-2.084-5.98-.145-8.955.727-1.111 1.904-1.75 3.409-1.848 1.308-.086 1.906-.437 2.02-.715.075-.186-.046-.502-.311-.803-.708-.806-2.288-1.452-4.087-.962-2.495.675-5.29 4.022-6.233 7.462-.33 1.21-.686 3.448.662 4.833a.953.953 0 01-.019 1.345.948.948 0 01-1.343-.02c-1.488-1.527-1.89-3.893-1.132-6.659.98-3.583 4.08-7.852 7.568-8.795 2.6-.703 4.89.266 6.01 1.542.776.881 1.009 1.896.64 2.784-.32.772-1.212 1.727-3.652 1.887-.909.06-1.543.385-1.939.99-.8 1.226-.615 3.4-.252 5.135 1.425-2.288 3.924-5.612 6.51-5.531.418.014.796.194 1.062.51.266.314.396.72.444 1.224 1.746-1.157 4.296-2.302 9.328-2.81-5.455-22.12 4.799-34.572 5.264-35.121l.012-.01a.392.392 0 01.161-.147c.03-.02.058-.036.089-.053l.02-.011a.482.482 0 01.06-.033.932.932 0 01.17-.054l.017-.006a.916.916 0 01.2-.021l.14.005c.28 0 .543.12.723.335.465.546 10.669 12.934 5.312 34.947 14.008.822 15.721 6.417 15.788 6.662l.002.009v.006l.001.007.002.009.014.092c.005.033.01.067.01.1v.014l.002.015c0 .017-.002.032-.004.049v.005c-.003.033-.006.07-.013.102-.005.029-.012.057-.019.086l-.008.028a.856.856 0 01-.02.062zm-20.982-4.32h2.454c5.405-17.692.32-29.62-2.454-34.355v34.356zM36.887 4.787v34.106h-2.315c-5.3-17.349-.481-29.2 2.314-34.106zM56.74 43.77l.005-.016c.111-.356.301-.94.769-1.352-1.052-1.33-4.367-4.063-13.992-4.56a62.908 62.908 0 01-.68 2.291.95.95 0 01-.905.663h-8.065a.95.95 0 01-.904-.663A70.468 70.468 0 0132.334 38c-6.102.575-8.286 2.107-9.954 3.4l-.022.166a21.17 21.17 0 01-.035.268c-.093.694-.235 1.763-.207 2.334.174-.103.35-.312.634-.697l.003-.004c.487-.65 1.151-1.54 2.492-1.54 1.337 0 2.002.89 2.488 1.54l.004.004c.456.613.629.78.97.78.342 0 .513-.167.971-.78l.004-.004c.486-.65 1.15-1.54 2.49-1.54 1.339 0 2.003.89 2.49 1.54l.003.004c.458.613.631.78.97.78.343 0 .513-.167.971-.78.485-.65 1.15-1.544 2.493-1.544 1.338 0 2.002.89 2.488 1.54l.004.004c.458.616.631.782.973.782.342 0 .513-.166.97-.78l.004-.004c.486-.65 1.15-1.54 2.491-1.54 1.338 0 2.003.89 2.489 1.54l.003.005c.456.613.63.78.971.78.342 0 .515-.167.973-.783.484-.65 1.151-1.544 2.492-1.544 1.34 0 2.005.89 2.491 1.54l.004.004c.458.613.631.78.97.78a.405.405 0 00.145-.017c.044-.05.123-.304.173-.464z" fill="#fff"/><path d="M59.731 43.294l-.439-.239.755.627-.316-.388zm.036-.083l-.462-.192-.007.017-.006.017.475.158zm-.035.083l.447.223-.764-.61.317.387zm-.057.074l-.278-.416-.088.058-.056.09.422.268zm-.034.048l-.405-.293.405.293zm-.016.023l.39.312.01-.012.01-.014-.41-.286zm-.062.074l.354.353.01-.01.008-.01-.372-.333zm-.06.056l-.332-.373-.01.01-.01.01.353.353zm-.075.065l.277.416.009-.006.008-.006-.294-.404zm-.071.045l.224.447.017-.009.016-.01-.257-.428zm-.018.01l.238.439-.238-.44zm-.018.009l.243.437-.243-.437zm0 0l.243.437-.243-.437zm-.05.026l-.21-.454-.007.003-.007.004.224.447zm-.063.025l.17.47-.17-.47zm-.027.01l.176.469.004-.002-.18-.466zm-.057.022l-.109-.488-.012.003.121.485zm-.026.002l-.121-.485-.004.001.125.484zm-.373.048l-.2-.458-.104.045-.074.086.378.327zm-.173.464l-.477-.149.477.15zm-.005.016l-.477-.15v.001l.477.149zm-4.624.29l.4-.3-.4.3zm-.004-.005l-.402.297.002.002.4-.3zm-1.941-.003l-.401-.299.4.3zm-.004.005l.4.3-.4-.3zm-4.98 0l-.4.3.4-.3zm-.003-.005l-.401.299.4-.299zm-1.942.003l-.4-.299.4.299zm-4.983.005l-.4.299.4-.3zm-.003-.005l-.402.298.001.001.4-.3zm-1.942 0l-.4-.3-.001.002.401.298zm-4.98.005l-.401.299.4-.3zm-.004-.005l-.401.298v.001l.4-.3zm-1.942.002l-.4-.298.4.298zm-4.98.005l.4-.3-.4.3zm-.004-.005l-.401.299.401-.299zm-1.941.003l-.401-.299.4.299zm-3.577 1.057l.377-.328-.001-.002-.376.33zm-.257-4.082l.496.067v-.001l-.495-.066zm.005-.035l.496.066-.496-.066zm.197-2.41l.498-.044-.05-.553-.544.107.096.49zm-5.594 6.492l-.446-.226-.001.002.447.224zm-.904.52l.062-.496-.017-.002-.017-.001-.028.499zm-.836-.623l.47-.169-.47.17zm-.145-8.955l-.418-.273.418.273zm3.409-1.848l.032.499-.032-.499zm2.02-.715l.462.19-.462-.19zm-.311-.803l-.376.33.376-.33zm-4.087-.962l.13.482-.13-.483zm-6.233 7.462l-.482-.132.482.133zm.662 4.833l.36-.348h-.002l-.358.348zM8.6 45.877l.348.359.001-.001-.349-.358zm-1.343-.02l.358-.348-.358.349zm-1.132-6.659l.482.132-.482-.132zm7.568-8.795l.13.482h.001l-.13-.482zm6.01 1.542l-.376.33.376-.33zm.64 2.784l.463.192-.462-.192zm-3.652 1.887l-.032-.5.032.5zm-1.939.99l-.418-.273.418.273zm-.252 5.135l-.489.102.255 1.22.659-1.058-.425-.264zm6.51-5.531l.018-.5h-.002l-.015.5zm1.062.51l-.383.322.001.002.382-.324zm.444 1.224l-.498.047.078.83.696-.46-.276-.417zm9.328-2.81l.05.497.573-.058-.138-.56-.486.12zm5.264-35.121L36.754.66l-.014.014-.014.016.382.323zm.012-.01l-.292-.406-.01.007-.009.007.31.392zm0 0l.291.406.01-.007.009-.007-.31-.392zm.014-.014L36.766.65l-.016.02-.015.02.4.3zm.088-.083l.323.382.016-.014.014-.015-.353-.353zm.059-.05L37.004.44l.277.416zm.089-.053l.243.437.006-.003-.25-.434zm0 0l-.195-.46-.028.012-.027.015.25.433zm0 0l.194.461.026-.01.024-.014-.244-.437zm.02-.011l.244.436.011-.006.01-.006-.265-.424zm.06-.033l-.195-.461-.009.004.203.457zm.137-.045l-.07-.495-.026.003-.025.007.121.485zm.033-.01l.159.475.016-.005.016-.007-.19-.462zm0 0l-.084-.492-.054.01-.052.02.19.463zm0 0l.085.494.037-.007.037-.012-.159-.474zM37.637.7l-.108-.488-.015.004-.015.004.138.48zm.2-.021l.016-.5h-.017v.5zm.14.005l-.017.5h.016v-.5zm.723.335l-.382.322.002.002.38-.324zm5.312 34.947l-.486-.119-.141.583.598.035.03-.5zM59.8 42.627l.485-.122-.002-.01-.483.132zm.002.009l-.496.065.496-.065zm0 .006l.497-.055-.497.055zm.001.007l-.495.066.495-.066zm.002.009l.494-.076-.004-.023-.005-.023-.485.122zm.014.092h.5v-.038l-.006-.038-.494.076zm0 0h-.5v.036l.005.035.495-.07zm.01.11l-.497.053v.001l.497-.055zm0 .004l-.496.062.497-.062zm-.002.064l-.496-.063.496.063zm0 .005l-.497-.062-.002.013v.014l.498.035zm-.013.102l-.489-.104-.002.01-.002.012.493.082zm-.019.086l.478.147.004-.013.003-.013-.485-.121zm-.008.028l.481.137-.481-.137zm-.012.04l.474.16-.474-.16zm-18.536-4.297v.5h.37l.109-.354-.479-.146zm-2.454 0h-.5v.5h.5v-.5zm0-34.356l.432-.252-.932-1.59v1.842h.5zm-1.898 34.356v.5h.5v-.5h-.5zm0-34.106h.5V2.899l-.935 1.64.434.247zm-2.315 34.106l-.478.146.108.354h.37v-.5zm22.173 4.863l.477.15.234-.747-.775.101.064.496zm-.005.016l-.477-.15.477.15zm.005-.016l-.478-.15-.233.747.775-.101-.064-.496zm.769-1.352l.33.376.356-.313-.294-.373-.392.31zm-13.992-4.56l.026-.498-.4-.021-.107.386.481.134zm-.68 2.291l.476.152-.477-.152zm-9.874 0l-.477.15v.002l.477-.152zm-.634-2.133l.481-.136-.112-.401-.416.039.047.498zm-9.954 3.4l-.306-.396-.163.126-.027.204.496.066zm-.022.166l.496.064-.496-.064zm-.035.268l-.495-.07v.004l.495.066zm-.207 2.334l-.499.025.041.825.712-.42-.254-.43zm.634-.697l-.4-.299-.002.002.402.297zm.003-.004l.401.3-.4-.3zm4.98 0l-.4.3.4-.3zm.004.004l.401-.298v-.001l-.401.3zm1.941 0l-.4-.3v.001l.4.3zm.004-.004l.4.3-.4-.3zm4.98 0l-.401.3.4-.3zm.003.004l.4-.299-.4.3zm1.941 0l.401.3v-.001l-.4-.299zm4.981-.004l.4-.3-.4.3zm.004.004l.4-.298-.4.298zm1.944.003l.4.3-.4-.3zm.003-.005l-.4-.299.4.3zm4.98 0l-.4.3.4-.3zm.003.005l.401-.299-.4.299zm1.944-.003l.401.299-.4-.299zm4.983-.004l.401-.3-.4.3zm.004.004l-.4.3.4-.3zm1.115.763l.201.458.104-.045.074-.086-.379-.327zm3.603-.702a.98.98 0 00.071-.164l-.949-.316a.115.115 0 01-.001.005l.001-.003.878.478zm-.755-.626l.632.775-.632-.775zm.537.877c.149-.1.212-.236.227-.267l-.895-.447c-.013.027.022-.057.113-.118l.555.831zm.095-.075c.01-.014.03-.041.05-.073l-.844-.537-.005.007-.012.017.81.586zm-.012.016a.666.666 0 01.012-.016l-.81-.586a1.9 1.9 0 00-.022.03l.82.572zm-.1.122c.031-.035.06-.07.08-.096l-.78-.624a1.191 1.191 0 01-.044.051l.744.669zm-.099.096c.034-.03.063-.06.08-.077l-.707-.707c-.02.02-.029.03-.038.037l.665.747zm-.114.095c.042-.03.089-.068.136-.115l-.708-.707-.005.004a.313.313 0 01-.012.01l.59.808zm-.108.07l.091-.058-.555-.832-.05.032.514.857zm-.037.02a.043.043 0 01.004-.002l-.448-.894a1.043 1.043 0 00-.032.017l.476.879zm-.013.007l.013-.007-.476-.88-.023.013.486.874zm0 0l-.486-.874.486.874zm-.083.043c.037-.017.069-.035.083-.043l-.486-.874a1.821 1.821 0 01-.016.008c-.002.002-.002.002 0 .001l.419.908zm-.102.041a.908.908 0 00.116-.048l-.448-.894.01-.005-.006.003-.013.004.34.94zm-.018.007l.018-.006-.34-.94a1.463 1.463 0 00-.038.013l.36.933zm-.128.043a.657.657 0 00.126-.042l.006-.003-.008.004-.352-.937a.84.84 0 00-.036.015l-.005.002-.003.002h-.001c.002 0 .024-.01.055-.017l.218.976zm-.014 0a.455.455 0 01-.102.013h-.006.012l.029-.001a.53.53 0 00.093-.015l-.242-.97a.466.466 0 01.108-.014h-.012a.563.563 0 00-.122.016l.242.97zm-.349.045c.13 0 .248-.02.353-.047l-.25-.968a.41.41 0 01-.103.015v1zm-.145-.483l.2.458h-.001l-.002.002-.003.001-.007.003a.478.478 0 01-.065.02h.023v-1a1.135 1.135 0 00-.28.034.593.593 0 00-.05.018c-.003 0-.005.002-.008.003l-.003.001-.002.001h-.001l.2.459zm.304.614a8.21 8.21 0 01.117-.345l.003-.006-.011.018a.411.411 0 01-.034.045l-.757-.653c-.068.079-.108.173-.12.2-.02.05-.04.103-.057.152-.035.1-.07.212-.095.29l.954.299zm-.005.015l.005-.015-.954-.299-.005.015.955.3zm-2.613 2.18c.938 0 1.565-.38 1.971-.874.386-.468.552-1.015.643-1.306l-.955-.298c-.094.302-.214.67-.46.968-.224.273-.573.51-1.199.51v1zm-2.889-1.74c.48.64 1.279 1.74 2.89 1.74v-1c-1.066 0-1.596-.679-2.089-1.339l-.801.599zm-.003-.005l.003.005.801-.599-.004-.005-.8.6zm-.57-.58c.043 0 .06.004.065.006a.197.197 0 01.058.038c.088.074.211.219.445.534l.804-.595c-.222-.3-.414-.545-.611-.709a1.13 1.13 0 00-.762-.275v1zm-.57.578c.235-.316.358-.46.447-.534a.199.199 0 01.057-.038.194.194 0 01.065-.007v-1c-.282 0-.525.08-.76.275-.197.163-.389.407-.611.705l.801.599zm-.004.004l.003-.004-.801-.599-.003.005.8.598zm-2.892 1.74c1.613 0 2.412-1.098 2.892-1.74l-.801-.598c-.493.66-1.023 1.339-2.091 1.339v1zm-2.89-1.74c.48.642 1.28 1.74 2.89 1.74v-1c-1.065 0-1.595-.678-2.088-1.338l-.801.598zm-.003-.004l.004.004.8-.598-.002-.005-.802.599zm-.57-.579c.044 0 .06.005.066.007a.201.201 0 01.058.038c.089.074.212.218.446.533l.802-.597c-.222-.298-.413-.543-.61-.706a1.131 1.131 0 00-.762-.275v1zm-.57.58c.236-.315.36-.46.448-.535a.2.2 0 01.059-.038.187.187 0 01.063-.007v-1c-.282 0-.524.08-.76.275-.197.163-.389.409-.612.708l.802.597zm-2.893 1.746c1.614 0 2.416-1.104 2.894-1.746l-.803-.596c-.49.66-1.023 1.342-2.09 1.342v1zm-2.891-1.74c.479.641 1.279 1.74 2.891 1.74v-1c-1.068 0-1.597-.68-2.09-1.339l-.801.599zm-.004-.005l.004.005.8-.599-.003-.004-.8.598zm-.57-.578a.2.2 0 01.066.007.204.204 0 01.058.038c.089.073.212.218.445.532l.803-.596c-.222-.299-.413-.544-.61-.707a1.132 1.132 0 00-.762-.274v1zm-.57.578c.235-.315.358-.46.447-.534a.199.199 0 01.058-.037.196.196 0 01.065-.007v-1c-.283 0-.525.079-.76.274-.197.163-.389.408-.611.706l.8.598zm-2.893 1.745c1.617 0 2.416-1.104 2.893-1.746l-.802-.596c-.491.66-1.02 1.342-2.09 1.342v1zm-2.89-1.74c.48.64 1.28 1.74 2.89 1.74v-1c-1.065 0-1.595-.679-2.088-1.339l-.801.599zm-.003-.005l.004.005.8-.599-.002-.004-.802.598zm-.57-.578a.2.2 0 01.066.007.204.204 0 01.058.038c.089.073.212.218.446.532l.802-.596c-.222-.299-.413-.544-.61-.707a1.132 1.132 0 00-.762-.274v1zm-.57.58c.236-.316.36-.461.448-.535a.202.202 0 01.059-.038.189.189 0 01.063-.007v-1c-.282 0-.524.08-.76.275-.197.163-.389.408-.612.708l.802.597zm-2.893 1.746c1.614 0 2.416-1.104 2.894-1.746l-.803-.597c-.49.66-1.023 1.343-2.09 1.343v1zm-2.889-1.74c.48.64 1.279 1.74 2.89 1.74v-1c-1.066 0-1.596-.68-2.089-1.34l-.8.6zm-.003-.005l.003.004.801-.599-.003-.004-.801.599zm-.57-.579c.043 0 .06.005.065.007a.2.2 0 01.058.038c.09.074.212.218.446.533l.802-.597c-.221-.298-.413-.543-.61-.707a1.132 1.132 0 00-.762-.274v1zm-.57.58c.235-.316.358-.461.448-.535a.202.202 0 01.058-.038.189.189 0 01.063-.007v-1c-.282 0-.524.08-.76.275-.196.163-.389.409-.611.708l.802.597zm-2.893 1.746c1.613 0 2.415-1.104 2.893-1.746l-.803-.597c-.49.66-1.022 1.343-2.09 1.343v1zm-1.462-.659c.37.426.896.66 1.462.66v-1a.918.918 0 01-.708-.316l-.754.656zm-.375-4.476c-.135 1.01-.243 1.882-.227 2.6.017.722.16 1.372.603 1.878l.752-.66c-.22-.25-.34-.62-.355-1.241-.014-.625.08-1.416.218-2.444l-.991-.133zm.004-.035l-.004.036.991.13.005-.035-.992-.13zm.195-2.299c.02.222 0 .597-.043 1.04-.042.432-.103.89-.152 1.26l.992.13c.048-.367.111-.84.155-1.293.043-.44.073-.9.044-1.226l-.996.09zm-4.65 6.672c.64-1.266 1.576-2.772 2.565-3.997.494-.613.993-1.144 1.465-1.54.482-.401.893-.626 1.214-.689l-.192-.981c-.565.11-1.133.46-1.663.904-.539.45-1.083 1.034-1.602 1.678-1.039 1.287-2.013 2.853-2.68 4.174l.893.45zm-1.293.797c.543 0 1.047-.304 1.294-.8l-.894-.446a.447.447 0 01-.4.246v1zm-.12-.006c.056.007.106.006.12.006v-1h-.013l.018.002-.124.992zm-1.243-.95c.196.547.7.92 1.277.953l.057-.998a.445.445 0 01-.393-.293l-.941.339zm-.093-9.397c-1.075 1.648-1.068 3.895-.813 5.71.258 1.84.792 3.372.906 3.688l.94-.34a18.62 18.62 0 01-.856-3.488c-.248-1.768-.205-3.697.66-5.023l-.837-.547zm3.794-2.074c-1.637.106-2.97.811-3.794 2.074l.837.547c.628-.961 1.65-1.534 3.022-1.623l-.065-.998zm1.59-.406c.02-.05.001.039-.288.157-.264.107-.684.209-1.302.249l.065.998c.69-.045 1.223-.162 1.614-.321.365-.15.702-.375.836-.704l-.925-.379zm-.224-.283c.104.117.165.222.193.295a.23.23 0 01.016.056c0 .003-.003-.025.015-.068l.925.38c.108-.264.05-.536-.023-.728a2.029 2.029 0 00-.375-.596l-.75.661zm-3.58-.81c1.627-.443 3.007.157 3.58.81l.751-.66c-.841-.958-2.623-1.651-4.594-1.115l.263.965zm-5.882 7.113c.45-1.644 1.348-3.278 2.436-4.58 1.095-1.312 2.336-2.233 3.445-2.533l-.261-.965c-1.386.375-2.79 1.465-3.952 2.857-1.17 1.4-2.14 3.16-2.632 4.956l.964.265zm.538 4.351c-.559-.574-.784-1.343-.819-2.155-.035-.812.123-1.618.281-2.197l-.965-.263c-.171.63-.356 1.548-.315 2.504.042.956.312 1.998 1.102 2.809l.716-.698zm-.028 2.052a1.453 1.453 0 00.03-2.05l-.72.695c.175.18.17.465-.008.639l.698.716zm-2.05-.028c.56.575 1.474.586 2.049.029l-.696-.718a.448.448 0 01-.637-.01l-.717.699zm-1.257-7.14c-.785 2.869-.397 5.442 1.257 7.14l.716-.698c-1.323-1.358-1.737-3.517-1.008-6.179l-.965-.264zm7.92-9.147c-1.882.51-3.611 1.897-4.981 3.574-1.374 1.683-2.429 3.708-2.939 5.572l.965.264c.47-1.719 1.455-3.62 2.748-5.203 1.298-1.589 2.863-2.808 4.469-3.242l-.261-.965zm6.517 1.695c-1.246-1.419-3.733-2.448-6.516-1.695l.261.965c2.414-.653 4.508.256 5.503 1.39l.752-.66zm.727 3.305c.458-1.107.141-2.319-.728-3.306l-.75.661c.683.776.831 1.593.554 2.263l.924.383zm-4.082 2.195c1.279-.084 2.197-.379 2.853-.789.662-.413 1.031-.929 1.229-1.405l-.924-.383c-.123.296-.36.644-.835.94-.48.3-1.227.563-2.389.639l.066.998zm-1.554.765c.29-.442.758-.713 1.554-.765l-.066-.998c-1.022.067-1.82.446-2.325 1.216l.837.547zm-.18 4.758c-.178-.846-.308-1.785-.3-2.65.008-.878.158-1.614.48-2.108l-.837-.547c-.477.731-.634 1.695-.643 2.645-.009.962.135 1.978.321 2.865l.979-.205zm6.036-5.928c-1.506-.047-2.906.89-4.057 2.02-1.167 1.148-2.173 2.589-2.893 3.747l.849.528c.703-1.13 1.66-2.495 2.745-3.562 1.102-1.082 2.245-1.767 3.325-1.734l.031-1zm1.428.689a1.935 1.935 0 00-1.426-.69l-.034 1c.28.01.523.128.695.333l.765-.643zm.56 1.498c-.053-.56-.204-1.08-.56-1.5l-.764.647c.176.207.286.5.328.947l.995-.094zm8.78-3.261c-5.098.515-7.728 1.682-9.555 2.891l.553.834c1.667-1.105 4.136-2.228 9.102-2.73l-.1-.995zM36.725.69c-.524.619-10.875 13.231-5.368 35.563l.97-.24C26.928 14.107 37.084 1.816 37.49 1.337L36.726.69zm.085-.08c-.002.002-.028.021-.055.049l.708.706a.427.427 0 01-.026.023l-.006.006L36.81.61zm.019-.014l.583.812-.583-.812zm-.094.092a.454.454 0 01.057-.063L36.81.61l.62.784a.586.586 0 00.105-.106l-.8-.6zm.164-.164a1.454 1.454 0 00-.132.125l.736.678a.464.464 0 01.043-.04l-.647-.763zm.105-.085a.882.882 0 00-.135.113l.707.706c.005-.004-.002.003-.016.013L37.004.44zm.123-.073c-.028.016-.074.041-.122.073l.555.832a.83.83 0 01.054-.032l-.487-.873zM37.12.37l.499.867L37.12.37zm.055-.027l.39.921-.39-.921zm-.029.013l-.02.011.488.873.02-.012-.488-.872zm.1-.054c-.058.026-.106.057-.121.066l.53.848.01-.007.004-.001-.016.008-.407-.914zm.22-.073a1.428 1.428 0 00-.21.069l.388.921a.442.442 0 01.065-.02l-.243-.97zm-.004.001c-.007.003-.002.001.004 0a.38.38 0 01.05-.011l.142.99c.064-.01.118-.03.12-.03L37.463.23zm-.032.012l.38.925-.38-.925zm.106-.03l.169.986-.169-.986zM37.5.219l-.037.011.317.949.003-.001-.007.002L37.5.219zm.337-.041c-.103 0-.206.01-.307.033l.217.976a.416.416 0 01.09-.009v-1zm.157.005l-.14-.005-.034 1 .14.004.034-.999zm1.09.512a1.443 1.443 0 00-1.107-.512v1c.135 0 .258.057.342.157l.765-.645zm5.415 35.388C49.906 13.859 39.606 1.31 39.08.693l-.761.649c.405.475 10.512 12.704 5.206 34.505l.972.236zm15.785 6.413c-.062-.225-.57-1.788-2.862-3.393-2.285-1.6-6.314-3.223-13.38-3.637l-.058.998c6.942.407 10.774 1.994 12.864 3.458 2.083 1.459 2.465 2.816 2.47 2.836l.965-.262zm.014.075a.593.593 0 00-.012-.066l-.97.243a.448.448 0 01-.01-.047l.992-.13zm.002.016c0-.001 0-.009-.002-.017l-.991.131v-.004l.993-.11zm0-.004v.005l-.994.109.002.018.992-.132zm-.01-.047c.007.023.009.041.01.047l-.991.132a.558.558 0 00.012.064l.97-.243zm.024.138l-.014-.092-.988.151.014.093.988-.152zm.006.076h-1 1zm.01.1c0-.075-.011-.143-.015-.17l-.99.14.003.022.001.011v-.003h1zm-.003-.045c0 .005.002.022.002.045h-1c0 .029.003.052.004.063l.994-.108zm0-.002v.001l-.994.11.001.012.993-.123zm.005.076a.553.553 0 00-.003-.054c0-.012-.002-.022-.002-.023l-.992.124-.001-.008a.423.423 0 01-.002-.04h1zm-.008.111a.788.788 0 00.008-.111h-1v-.022c0-.001.001-.002 0 0v.008l.992.125zm0 .006v-.006l-.992-.125-.001.006.992.125zm-.02.144c.016-.074.02-.147.022-.171l-.998-.071-.001.021-.001.014v-.002l.978.209zm-.023.102c.007-.025.019-.073.027-.124l-.986-.165a.752.752 0 01-.01.047l.97.242zm-.012.044l.005-.018-.956-.294-.011.039.962.273zm-.02.063a.765.765 0 00.02-.063l-.962-.274-.004.015-.001.003.948.319zm-.02.054a.766.766 0 00.02-.054l-.947-.32.004-.01.923.384zM41.24 38.392h-2.454v1h2.454v-1zM38.354 4.789c2.721 4.644 7.762 16.427 2.407 33.957l.957.292c5.454-17.856.326-29.928-2.501-34.754l-.863.505zm.931 34.103V4.536h-1v34.356h1zm-1.898 0V4.786h-1v34.106h1zm-2.815.5h2.314v-1h-2.314v1zm1.88-34.854c-2.848 4.997-7.707 16.991-2.358 34.5l.957-.292C29.8 21.557 34.577 9.848 37.32 5.033l-.869-.495zm19.816 39.068l-.005.015.955.299.004-.016-.954-.298zm.541.645l-.128-.992.128.992zm.375-2.223c-.585.513-.807 1.227-.917 1.578l.955.298c.113-.361.27-.817.622-1.125l-.66-.751zm-13.687-3.685c9.542.493 12.695 3.194 13.624 4.37l.785-.62c-1.173-1.484-4.652-4.248-14.358-4.748l-.051.998zm-.18 1.943c.25-.781.477-1.55.687-2.308l-.963-.268a62.372 62.372 0 01-.676 2.273l.953.303zm-1.38 1.011c.632 0 1.189-.41 1.38-1.01l-.952-.305a.45.45 0 01-.428.315v1zm-8.065 0h8.065v-1h-8.065v1zm-1.38-1.01c.191.6.748 1.01 1.38 1.01v-1a.45.45 0 01-.428-.315l-.952.304zm-.64-2.151c.199.705.41 1.42.64 2.149l.953-.301a69.808 69.808 0 01-.63-2.119l-.962.271zm-9.166 3.66c.82-.635 1.741-1.31 3.197-1.901 1.46-.594 3.482-1.112 6.498-1.397l-.094-.995c-3.086.29-5.207.826-6.78 1.465-1.58.642-2.585 1.38-3.433 2.037l.612.79zm.168-.165l.021-.164-.99-.132-.023.17.992.126zm-.036.274c.014-.096.025-.188.036-.274l-.992-.127c-.01.088-.022.173-.034.262l.99.139zm-.202 2.239c-.026-.513.107-1.525.203-2.242l-.992-.133c-.09.67-.241 1.797-.21 2.425l.999-.05zm-.268-.969c-.3.406-.416.522-.485.563l.507.861c.278-.163.513-.465.782-.83l-.804-.594zm.005-.007l-.003.005.8.599.004-.005-.8-.599zm2.892-1.74c-1.613 0-2.413 1.1-2.892 1.74l.801.6c.493-.66 1.023-1.34 2.09-1.34v-1zm2.889 1.74c-.48-.64-1.279-1.74-2.89-1.74v1c1.066 0 1.596.68 2.089 1.34l.8-.6zm.003.005l-.003-.005-.801.6.003.004.801-.6zm.57.579a.195.195 0 01-.065-.008.197.197 0 01-.058-.038c-.09-.073-.212-.217-.446-.532l-.803.597c.222.298.414.543.611.706.236.196.48.275.762.275v-1zm.57-.579c-.235.315-.358.46-.447.534a.196.196 0 01-.057.038.192.192 0 01-.065.007v1c.282 0 .525-.08.76-.275.197-.163.388-.408.61-.705l-.8-.599zm.004-.005l-.003.005.8.599.004-.005-.8-.599zm2.892-1.74c-1.613 0-2.412 1.1-2.892 1.74l.801.6c.493-.66 1.023-1.34 2.09-1.34v-1zm2.889 1.74c-.48-.64-1.279-1.74-2.89-1.74v1c1.066 0 1.596.68 2.089 1.34l.801-.6zm.003.005l-.003-.005-.8.6.003.004.8-.6zm.57.579a.187.187 0 01-.063-.007.202.202 0 01-.059-.038c-.089-.074-.212-.22-.447-.534l-.802.599c.223.298.415.543.612.705.236.195.477.275.76.275v-1zm.571-.579c-.236.315-.359.46-.447.534a.195.195 0 01-.058.038.19.19 0 01-.065.007v1c.283 0 .525-.08.76-.275.197-.163.389-.408.611-.705l-.801-.599zm2.893-1.745c-1.617 0-2.416 1.104-2.894 1.746l.803.597c.49-.66 1.02-1.343 2.09-1.343v-1zm2.889 1.74c-.48-.64-1.279-1.74-2.89-1.74v1c1.066 0 1.596.68 2.089 1.34l.8-.6zm.003.005l-.003-.005-.801.599.003.005.801-.599zm.573.581a.2.2 0 01-.066-.007.202.202 0 01-.058-.038c-.09-.074-.213-.22-.448-.535l-.802.597c.223.3.415.545.612.708.237.196.48.275.762.275v-1zm.57-.578c-.236.315-.358.46-.447.533a.2.2 0 01-.058.038.197.197 0 01-.065.007v1c.283 0 .525-.08.76-.275.197-.162.389-.407.611-.705l-.8-.599zm.004-.005l-.004.005.801.598.004-.004-.801-.599zm2.891-1.74c-1.613 0-2.412 1.099-2.892 1.74l.801.599c.494-.66 1.023-1.34 2.091-1.34v-1zm2.89 1.74c-.48-.641-1.28-1.74-2.89-1.74v1c1.065 0 1.595.678 2.088 1.339l.801-.6zm.003.005l-.004-.005-.8.599.003.004.8-.599zm.57.578a.196.196 0 01-.066-.007.199.199 0 01-.058-.038c-.089-.073-.212-.218-.446-.533l-.802.597c.222.298.413.544.61.707.237.195.48.274.762.274v-1zm.572-.58c-.235.316-.358.461-.448.535a.204.204 0 01-.059.038.198.198 0 01-.065.007v1c.283 0 .525-.08.762-.275.197-.163.39-.409.612-.708l-.802-.597zm2.893-1.746c-1.614 0-2.416 1.104-2.893 1.746l.802.597c.491-.66 1.023-1.343 2.091-1.343v-1zm2.892 1.74c-.48-.64-1.279-1.74-2.892-1.74v1c1.068 0 1.598.68 2.09 1.34l.802-.6zm.003.005l-.003-.004-.801.598.003.005.801-.599zm.57.579a.188.188 0 01-.063-.007.203.203 0 01-.059-.038c-.089-.074-.212-.22-.448-.534l-.8.599c.222.298.414.543.611.705.236.195.477.275.76.275v-1zm.145.483l-.2-.458h.002l.001-.002.004-.001.007-.003a.478.478 0 01.065-.02c.01-.002.004 0-.023 0v1a1.135 1.135 0 00.28-.034.722.722 0 00.034-.011l.016-.007.008-.003.003-.001.002-.001h.001s.001-.001-.2-.459zm-.304-.614a8.198 8.198 0 01-.116.345l-.003.006a.291.291 0 01.045-.064l.757.654c.068-.079.107-.173.12-.2.02-.05.04-.103.057-.152.035-.1.07-.212.095-.29l-.955-.299z" fill="#222532"/><path d="M6.975 30.472c-.12-.145-1.222-1.407-2.632-1.407-.653 0-1.586.268-2.319 1.544l-.819 1.426H8.29l-1.315-1.563z" fill="#fff" stroke="#222532"/><path fill-rule="evenodd" clip-rule="evenodd" d="M5.133 33.914l.976.102-.124.974c-.358 2.633-3.13 5.41-3.25 5.53l-1.283 1.273-.318-1.782c-.378-2.096-.11-3.707.795-4.788 1.265-1.513 3.204-1.309 3.204-1.309zM3.39 36.442c-.17.2-.296.454-.384.753a9.72 9.72 0 00.564-.936 1.643 1.643 0 00-.18.183z" fill="#fff"/><path d="M6.109 34.016l.496.063.064-.507-.508-.053-.052.497zm-.976-.102l-.052.497.052-.497zm.852 1.076l.496.068v-.005l-.496-.063zm-3.25 5.53l.353.354.002-.002-.354-.353zm-1.283 1.273l-.492.087.167.939.677-.671-.352-.355zm-.318-1.782l.492-.088v-.001l-.492.089zm.795-4.788l.383.321-.383-.32zm1.077 1.972l-.48-.14-.055.19.09.177.445-.227zm.384-.753l.381.323.004-.004-.385-.319zm-.384.753l-.445.227.387.759.474-.707-.416-.279zm.564-.936l.443.232-.773-.607.33.375zm2.59-2.74l-.975-.102-.104.994.975.103.105-.995zm.321 1.534l.124-.974-.992-.126-.124.975.992.125zm-3.391 5.82c.067-.068.81-.813 1.585-1.882.766-1.056 1.61-2.49 1.806-3.933l-.991-.135c-.162 1.19-.884 2.46-1.624 3.48-.73 1.009-1.433 1.712-1.484 1.763l.708.707zm-1.286 1.275l1.284-1.274-.704-.71L1.1 41.438l.704.71zm-1.162-2.05L.96 41.88l.984-.175-.318-1.782-.984.175zm.903-5.196C.506 36.145.252 37.933.642 40.1l.984-.177c-.365-2.025-.083-3.458.686-4.378l-.767-.642zm3.588-.988l.052-.497h-.004l-.008-.001-.023-.002a3.964 3.964 0 00-.35-.008c-.227.005-.541.03-.9.106-.715.154-1.63.524-2.355 1.39l.768.642c.54-.647 1.227-.931 1.797-1.054a3.837 3.837 0 01.914-.082c.022 0 .039.002.048.003h.01l.051-.497zm-1.647 3.422c.074-.25.172-.437.285-.57l-.763-.647a2.541 2.541 0 00-.481.935l.96.282zm-.034-.368l-.891.454.89-.454zm-.325-.94c-.155.297-.34.597-.536.889l.83.557c.21-.312.415-.644.592-.983l-.886-.464zm.648.733a1.15 1.15 0 01.126-.127l-.661-.75a2.147 2.147 0 00-.235.239l.77.638z" fill="#222532"/><path fill-rule="evenodd" clip-rule="evenodd" d="M12.443 28.625c0 .993-.81 1.8-1.802 1.8a1.802 1.802 0 010-3.6c.995 0 1.802.807 1.802 1.8zm-1.701 0a.1.1 0 00-.1-.1.099.099 0 00-.098.1c0 .11.198.11.198 0z" fill="#fff"/><path d="M10.641 30.926a2.304 2.304 0 002.302-2.301h-1c0 .717-.585 1.3-1.302 1.3v1zm-2.299-2.301c0 1.269 1.03 2.3 2.3 2.3v-1a1.302 1.302 0 01-1.3-1.3h-1zm2.3-2.3a2.302 2.302 0 00-2.3 2.3h1c0-.718.584-1.3 1.3-1.3v-1zm2.3 2.3a2.3 2.3 0 00-2.3-2.3v1a1.3 1.3 0 011.3 1.3h1zm-2.3.4a.4.4 0 01-.4-.4h1a.6.6 0 00-.6-.6v1zm.402-.4c0 .206-.166.4-.402.4v-1a.599.599 0 00-.598.6h1zm-.802 0c0-.144.073-.268.172-.34a.385.385 0 01.229-.078c.06 0 .145.015.229.077a.426.426 0 01.172.341h-1c0 .199.098.364.234.464a.61.61 0 00.365.118.615.615 0 00.365-.118.574.574 0 00.234-.464h-1z" fill="#222532"/></svg>