<svg width="48" height="47" fill="none" xmlns="http://www.w3.org/2000/svg"><g filter="url(#filter0_d)" fill="#fff"><path d="M43.109 31.74h-8.364a.487.487 0 000 .972h8.364a.487.487 0 000-.972zm0 6.159h-9.377a.487.487 0 000 .972h9.377a.487.487 0 000-.972zM5.206 35.248h7.562a.487.487 0 000-.972H5.206a.487.487 0 000 .972z"/><path fill-rule="evenodd" clip-rule="evenodd" d="M8.5.051a.487.487 0 01.65.655 4.24 4.24 0 00-.455 1.914c0 2.38 1.948 4.317 4.34 4.317a4.32 4.32 0 001.924-.453.485.485 0 01.651.652 5.284 5.284 0 01-4.755 2.944c-2.929 0-5.31-2.374-5.31-5.291A5.26 5.26 0 018.5.05zm5.432 7.782a5.244 5.244 0 01-.898.075c-2.928 0-5.31-2.372-5.309-5.289 0-.304.025-.602.076-.896a4.274 4.274 0 00-1.285 3.065c0 2.382 1.948 4.32 4.34 4.32a4.313 4.313 0 003.076-1.275zM43.11 23.954h-.001a.486.486 0 00-.486.484l-.012 2.594L24.58.442c-.18-.269-.623-.269-.805 0l-18.02 26.57.012-2.754a.486.486 0 00-.485-.488h-.001a.486.486 0 00-.486.484l-.017 4.347a.487.487 0 00.888.275l2.836-4.181v3.91c0 .267.218.485.486.485H19.81a4.404 4.404 0 004.206 3.098l.019-.001.019-.001h.01l.01.002c.01 0 .019-.002.028-.003l.029-.003a4.401 4.401 0 004.09-3.092h11.147a.487.487 0 00.486-.486v-3.91l2.835 4.182a.484.484 0 00.887-.272l.019-4.164a.484.484 0 00-.484-.487zM24.13 31.21h-.005a.965.965 0 01-.07.004 1.542 1.542 0 01-1.526-1.534c0-.552.812-1.823 1.545-2.782.732.959 1.545 2.23 1.545 2.782 0 .826-.663 1.5-1.488 1.53zm2.459-1.531c0 .144-.02.28-.042.417.556-.607.898-1.41.894-2.293 0-1.455-2.21-4.552-3.428-6.094-1.217 1.541-3.428 4.64-3.428 6.095 0 .956.4 1.822 1.04 2.442a2.555 2.555 0 01-.07-.567c0-1.23 1.786-3.441 2.143-3.872a.503.503 0 01.748 0c.359.43 2.143 2.642 2.143 3.872zm-2.198-9.051a.503.503 0 00-.748 0c-.412.495-4.026 4.913-4.026 7.176 0 .076.005.151.01.226l.005.089H14.74v-3.204c.634-.512 2.735-2.289 4.863-4.925 1.727-2.139 3.7-5.162 4.593-8.609.895 3.449 2.867 6.47 4.594 8.609 2.128 2.636 4.23 4.413 4.863 4.925v3.204H28.4c.007-.105.015-.209.015-.315.002-2.262-3.612-6.68-4.024-7.176zm10.23 7.49h4.26l.003-4.856L24.178 1.58 9.473 23.263v4.857h4.292v-3.44c0-.151.07-.293.19-.385.118-.092 9.752-7.643 9.752-16.58a.487.487 0 01.972 0c0 8.934 9.629 16.483 9.752 16.58a.49.49 0 01.19.386v3.439z"/><path fill-rule="evenodd" clip-rule="evenodd" d="M31.562 33.987a.49.49 0 01-.307.623l-1.798.594 1.728.488a.49.49 0 01.334.605l-.62 2.092a.485.485 0 01-.599.328l-6.184-1.748-5.676 1.877a.478.478 0 01-.607-.302l-.716-2.063a.482.482 0 01.306-.62l1.5-.496-1.802-.508a.49.49 0 01-.334-.606l.62-2.091a.485.485 0 01.598-.33l6.259 1.768 5.971-1.975a.485.485 0 01.611.301l.716 2.063zm-13.36-1.093l-.345 1.16 2.711.767 2.05-.678-4.415-1.248zm12.244 3.599l-.346 1.16-4.339-1.229 2.05-.677 2.635.746zm-12.253.136l.397 1.145 11.892-3.933-.396-1.144-11.892 3.932z"/></g><defs><filter id="filter0_d" x=".72" y=".001" width="46.874" height="46.87" filterUnits="userSpaceOnUse" color-interpolation-filters="sRGB"><feFlood flood-opacity="0" result="BackgroundImageFix"/><feColorMatrix in="SourceAlpha" values="0 0 0 0 0 0 0 0 0 0 0 0 0 0 0 0 0 0 127 0"/><feOffset dy="4"/><feGaussianBlur stdDeviation="2"/><feColorMatrix values="0 0 0 0 0 0 0 0 0 0 0 0 0 0 0 0 0 0 0.25 0"/><feBlend in2="BackgroundImageFix" result="effect1_dropShadow"/><feBlend in="SourceGraphic" in2="effect1_dropShadow" result="shape"/></filter></defs></svg>