<svg width="26" height="25" fill="none" xmlns="http://www.w3.org/2000/svg"><path fill-rule="evenodd" clip-rule="evenodd" d="M24.34 24.094a2.274 2.274 0 000-3.235l-4.76-4.722c-.338-.335-.426-.946-.198-1.361 0 0-.016.062.15-.302a9.625 9.625 0 00.87-4.011c0-5.372-4.388-9.725-9.804-9.725C5.183.738.794 5.09.794 10.463s4.389 9.725 9.804 9.725a9.826 9.826 0 004.033-.858c.371-.165.313-.152.313-.152.426-.226 1.036-.14 1.374.194l4.76 4.722a2.32 2.32 0 003.262 0zm-8.263-13.63c0 3-2.453 5.434-5.479 5.434-3.025 0-5.478-2.434-5.478-5.435 0-3 2.453-5.434 5.478-5.434 3.026 0 5.479 2.433 5.479 5.434z" fill="#fff"/></svg>