<svg width="23" height="25" fill="none" xmlns="http://www.w3.org/2000/svg"><path fill-rule="evenodd" clip-rule="evenodd" d="M15.184 23.33c2.179-.611 4.46-.92 6.673-1.202.476-.06.919.27.953.736a.846.846 0 01-.715.952c-2.145.272-4.358.563-6.434 1.152a.865.865 0 01-1.056-.587.848.848 0 01.579-1.051zM8.58 14.661c3.506-3.578 7.455-6.696 10.894-10.37a.838.838 0 011.191-.042c.34.32.375.86.034 1.203-3.438 3.685-7.387 6.813-10.894 10.402a.878.878 0 01-1.225.01c-.307-.329-.34-.868 0-1.203zM2.008.897l-.306 6.145c0 .47-.408.831-.885.809C.34 7.827 0 7.428 0 6.959L.306.805A.873.873 0 011.226 0a.847.847 0 01.782.896z" fill="#000"/></svg>