<svg width="160" height="160" fill="none" xmlns="http://www.w3.org/2000/svg"><g clip-path="url(#clip0_1_446)" fill-rule="evenodd" clip-rule="evenodd" fill="#1E3240"><path d="M74.89 115.056c18.056 9.784 38.707 16.971 59.182 15.563 7.45-.512 14.346-2.66 21.426-4.796a.944.944 0 10-.546-1.805c-6.944 2.093-13.703 4.217-21.009 4.718-20.184 1.388-40.53-5.759-58.313-15.424l.127-.285c1.383-3.097.526-7.616-1.734-12.36-3.238-6.799-9.267-14.105-14.693-18.14-2.44-1.813-4.776-2.965-6.703-3.206-1.502-.189-2.791.149-3.787 1.048-2.12 1.917-2.046 5.188-.365 8.98 3.514 7.931 13.834 18.376 19.432 21.726a189.472 189.472 0 005.332 3.074c-.229.552-.455 1.09-.698 1.605-.698 1.462-1.555 2.741-3.206 3.618-2.575 1.363-5.662 1.599-8.821 1.246-4.93-.553-10.033-2.557-13.79-4.278C25.8 106.754 15.437 90.128 9.88 73.438 4.27 56.58 3.534 39.645 1.873 29.655a.943.943 0 10-1.86.31c1.671 10.055 2.429 27.1 8.078 44.069 5.702 17.135 16.368 34.18 37.846 44.022 3.914 1.792 9.233 3.861 14.366 4.437 3.553.398 7.018.08 9.916-1.455 2.6-1.378 3.633-3.529 4.67-5.982zm-.919-2.657l.065-.142c1.209-2.707.26-6.63-1.716-10.778-3.112-6.533-8.9-13.558-14.118-17.437-1.788-1.331-3.499-2.288-5.004-2.69-1.242-.33-2.32-.283-3.092.417-.732.658-1.023 1.565-1.01 2.62.012 1.24.424 2.662 1.102 4.195 3.378 7.62 13.298 17.653 18.677 20.872 1.672.998 3.37 1.982 5.096 2.943z"/><path d="M157.892 122.904c-.082.405-.357.914-.66 1.457-.721 1.297-1.746 2.677-2.203 3.348a.945.945 0 001.562 1.06c.559-.822 1.922-2.664 2.655-4.191.392-.82.596-1.577.551-2.121-.075-.927-.807-1.505-2.26-1.47-1.718.042-4.91.904-7.582-.132a.943.943 0 00-.68 1.761c2.548.986 5.518.511 7.517.313.38-.038.832-.033 1.1-.025z"/></g><defs><clipPath id="clip0_1_446"><path fill="#fff" d="M0 0h160v160H0z"/></clipPath></defs></svg>