<svg width="50" height="50" viewBox="0 0 62 62" fill="none" xmlns="http://www.w3.org/2000/svg">
<g opacity="0.1" clip-path="url(#clip0_2_262)">
<path fill-rule="evenodd" clip-rule="evenodd" d="M8.16988 16.8803C8.35394 16.3595 8.92527 16.0866 9.44598 16.2707L49.7788 30.5278C49.7796 30.528 49.7803 30.5283 49.781 30.5286L51.9016 31.2781C52.4223 31.4622 52.6952 32.0335 52.5112 32.5543C52.3271 33.075 51.7558 33.3479 51.2351 33.1638L50.0329 32.7389C48.1663 37.3219 44.7579 41.1116 40.3977 43.452L42.6645 48.1975L49.598 44.8856C50.0963 44.6475 50.6933 44.8585 50.9314 45.3569C51.1694 45.8553 50.9584 46.4522 50.46 46.6903L34.7883 54.1761C34.2899 54.4142 33.693 54.2032 33.4549 53.7048C33.2169 53.2065 33.4279 52.6095 33.9263 52.3714L40.8598 49.0595L38.593 44.314C33.7257 46.364 28.2558 46.5332 23.2539 44.7651C17.9369 42.8856 13.5842 38.9709 11.1535 33.8822C8.8669 29.0951 8.45732 23.6379 9.98154 18.5813L8.77943 18.1564C8.25872 17.9723 7.98581 17.401 8.16988 16.8803ZM11.8695 19.2487C10.5206 23.8043 10.9003 28.7118 12.9582 33.0202C15.1603 37.6303 19.1035 41.1767 23.9205 42.8795C28.7233 44.5772 34.0025 44.3032 38.6032 42.1187C38.6162 42.1118 38.6295 42.1051 38.643 42.0986C38.6565 42.0922 38.6701 42.0861 38.6837 42.0803C42.9729 40.0193 46.337 36.4492 48.145 32.0715L43.6123 30.4693C43.6117 30.4691 43.6111 30.4688 43.6105 30.4686L16.4029 20.8511C16.4026 20.851 16.4031 20.8512 16.4029 20.8511L11.8695 19.2487Z" fill="black"/>
<path fill-rule="evenodd" clip-rule="evenodd" d="M24.5333 12.5598C17.8189 15.767 14.9758 23.8101 18.183 30.5245C21.3903 37.2388 29.4333 40.0819 36.1477 36.8747C42.8621 33.6675 45.7052 25.6244 42.4979 18.91C39.2907 12.1957 31.2476 9.35257 24.5333 12.5598ZM16.3784 31.3865C12.695 23.6754 15.9602 14.4384 23.6712 10.7551C31.3823 7.0718 40.6193 10.3369 44.3026 18.048C47.9859 25.7591 44.7208 34.9961 37.0097 38.6794C29.2987 42.3627 20.0617 39.0976 16.3784 31.3865Z" fill="black"/>
</g>
<defs>
<clipPath id="clip0_2_262">
<rect width="46.3142" height="46.3142" fill="white" transform="translate(0 19.9624) rotate(-25.5323)"/>
</clipPath>
</defs>
</svg>
