<svg width="50" height="50" viewBox="0 0 68 68" fill="none" xmlns="http://www.w3.org/2000/svg">
<g clip-path="url(#clip0_2_258)">
<path fill-rule="evenodd" clip-rule="evenodd" d="M12.0654 43.2993C12.1775 42.998 12.4277 42.7691 12.7377 42.684L26.3048 38.9581L28.4139 36.6298C28.4435 36.5972 28.4752 36.5665 28.5088 36.538L43.3909 23.9376C43.5018 23.8437 43.632 23.775 43.7722 23.7365L53.0042 21.2012C53.4192 21.0872 53.8607 21.2516 54.1001 21.6093L65.4656 38.5927C65.6394 38.8524 65.6818 39.1784 65.5803 39.474C65.4787 39.7695 65.2448 40.0005 64.948 40.0985L51.7736 44.4471L39.4378 58.1723C39.3808 58.2386 39.3142 58.2984 39.2382 58.3496M38.7949 55.8957L49.944 43.4908L42.8416 32.8777C42.5344 32.4187 42.6575 31.7976 43.1165 31.4904C43.5754 31.1833 44.1965 31.3064 44.5037 31.7653L51.6159 42.393L63.0718 38.6117L52.8388 23.3207L44.5147 25.6067L29.8517 38.0216L28.1157 39.938L38.7949 55.8957ZM26.4202 41.0005L14.6052 44.2451L25.2213 60.1086L37.0722 56.9176L26.4202 41.0005ZM38.9165 58.4923L25.049 62.2263C24.6352 62.3377 24.1963 62.173 23.9579 61.8168L12.1714 44.2044C11.9926 43.9373 11.9532 43.6005 12.0654 43.2993M38.9165 58.4923C39.0154 58.4681 39.1121 58.4283 39.2031 58.3723C39.2139 58.3656 39.2246 58.3588 39.2352 58.3516" fill="#2D3134"/>
<path fill-rule="evenodd" clip-rule="evenodd" d="M15.4885 21.2804C16.0863 18.2635 17.8581 15.6077 20.4141 13.8972C22.97 12.1868 26.1008 11.5617 29.1176 12.1595C32.1345 12.7573 34.7903 14.5291 36.5008 17.0851C39.3337 21.3184 39.8572 27.1482 39.7275 31.7652C39.6619 34.0992 39.4273 36.1771 39.2094 37.6715C39.1003 38.4195 38.9951 39.0232 38.9167 39.442C38.8775 39.6514 38.845 39.8147 38.822 39.9268C38.8105 39.9829 38.8014 40.0262 38.7951 40.056L38.7876 40.0906L38.7855 40.1003L38.7849 40.1031L38.7847 40.1041C38.7846 40.1044 38.7846 40.1047 37.8081 39.8889C37.6353 40.8738 37.635 40.8738 37.6346 40.8737L37.6337 40.8735L37.6308 40.873L37.6211 40.8713L37.5862 40.865C37.5562 40.8595 37.5127 40.8514 37.4565 40.8406C37.3441 40.8191 37.1808 40.7869 36.9722 40.7433C36.5552 40.656 35.957 40.523 35.224 40.3386C33.7593 39.9702 31.749 39.3946 29.5664 38.5652C25.2489 36.9243 20.0592 34.2172 17.2262 29.9839C15.5157 27.428 14.8906 24.2972 15.4885 21.2804ZM37.8081 39.8889L37.6353 40.8738C38.1625 40.9663 38.669 40.6273 38.7846 40.1047L37.8081 39.8889ZM37.0175 38.7074C37.0805 38.3505 37.1543 37.9039 37.2303 37.3829C37.4401 35.9443 37.6654 33.9463 37.7283 31.7091C37.8554 27.1837 37.3096 21.8897 34.8386 18.1974C33.4231 16.0823 31.2254 14.6161 28.7289 14.1214C26.2323 13.6266 23.6415 14.1439 21.5264 15.5594C19.4113 16.9749 17.9451 19.1726 17.4503 21.6691C16.9556 24.1657 17.4729 26.7565 18.8884 28.8716C21.3593 32.5639 26.0451 35.0873 30.2769 36.6956C32.3691 37.4908 34.3019 38.0444 35.7119 38.3991C36.2224 38.5275 36.6635 38.6296 37.0175 38.7074Z" fill="#2D3134"/>
<path fill-rule="evenodd" clip-rule="evenodd" d="M25.7358 21.8497C24.8052 22.4724 24.5556 23.7317 25.1784 24.6623C25.8012 25.5929 27.0604 25.8424 27.991 25.2196C28.9216 24.5969 29.1711 23.3376 28.5484 22.407C27.9256 21.4764 26.6664 21.2269 25.7358 21.8497ZM23.5163 25.7746C22.2792 23.926 22.7749 21.4246 24.6234 20.1875C26.472 18.9504 28.9734 19.4461 30.2105 21.2947C31.4476 23.1433 30.9519 25.6447 29.1033 26.8818C27.2548 28.1189 24.7534 27.6232 23.5163 25.7746Z" fill="#2D3134"/>
</g>
<defs>
<clipPath id="clip0_2_258">
<rect width="48.4398" height="48.4398" fill="white" transform="translate(0 26.9407) rotate(-33.7912)"/>
</clipPath>
</defs>
</svg>
