<svg width="24" height="24" viewBox="0 0 24 24" fill="none" xmlns="http://www.w3.org/2000/svg">
<path fill-rule="evenodd" clip-rule="evenodd" d="M10.692 2.54877C6.19359 2.54877 2.54688 6.19548 2.54688 10.6939C2.54688 15.1924 6.19359 18.8391 10.692 18.8391C15.1905 18.8391 18.8372 15.1924 18.8372 10.6939C18.8372 6.19548 15.1905 2.54877 10.692 2.54877ZM0.546875 10.6939C0.546875 5.09091 5.08902 0.548767 10.692 0.548767C16.2951 0.548767 20.8372 5.09091 20.8372 10.6939C20.8372 16.297 16.2951 20.8391 10.692 20.8391C5.08902 20.8391 0.546875 16.297 0.546875 10.6939Z" fill="white"/>
<path fill-rule="evenodd" clip-rule="evenodd" d="M16.4521 16.4538C16.8427 16.0633 17.4758 16.0633 17.8663 16.4538L23.1575 21.7449C23.548 22.1354 23.548 22.7686 23.1575 23.1591C22.767 23.5496 22.1338 23.5496 21.7433 23.1591L16.4521 17.868C16.0616 17.4775 16.0616 16.8443 16.4521 16.4538Z" fill="white"/>
</svg>
