<svg width="30" height="24" viewBox="0 0 30 24" fill="none" xmlns="http://www.w3.org/2000/svg">
<path fill-rule="evenodd" clip-rule="evenodd" d="M28.2 0H1.8C0.805887 0 0 0.805887 0 1.8V22.2C0 23.1941 0.805887 24 1.8 24H28.2C29.1941 24 30 23.1941 30 22.2V1.8C30 0.805887 29.1941 0 28.2 0ZM28.8 22.2C28.8 22.5314 28.5313 22.8 28.2 22.8H1.79995C1.46858 22.8 1.19995 22.5314 1.19995 22.2V1.80003C1.19995 1.46866 1.46858 1.20003 1.79995 1.20003H28.2C28.5313 1.20003 28.8 1.46866 28.8 1.80003V22.2ZM7.79985 7.19999C8.13122 7.19999 8.39985 6.93136 8.39985 6.59999C8.39985 6.26861 8.13122 5.99998 7.79985 5.99998H4.19985C3.86848 5.99998 3.59985 6.26861 3.59985 6.59999C3.59985 6.93136 3.86848 7.19999 4.19985 7.19999H7.79985ZM14.9999 7.19999H10.1999C9.86854 7.19999 9.59991 6.93136 9.59991 6.59999C9.59991 6.26861 9.86854 5.99998 10.1999 5.99998H14.9999C15.3313 5.99998 15.5999 6.26861 15.5999 6.59999C15.5999 6.93136 15.3313 7.19999 14.9999 7.19999ZM19.8002 12.76C20.5029 12.2656 21.341 12.0002 22.2002 12C24.0093 11.999 25.6155 13.1571 26.186 14.8738C26.7566 16.5905 26.1631 18.4797 24.7134 19.5617C23.2636 20.6438 21.2837 20.6754 19.8002 19.6401C18.0547 20.8627 15.6701 20.5843 14.2533 18.9923C12.8364 17.4004 12.8364 14.9996 14.2533 13.4077C15.6701 11.8158 18.0547 11.5373 19.8002 12.76ZM17.4 19.2C15.7432 19.2 14.4 17.8568 14.4 16.2C14.4 14.5431 15.7432 13.2 17.4 13.2C19.0569 13.2 20.4 14.5431 20.4 16.2C20.3981 17.8561 19.0561 19.1981 17.4 19.2ZM20.6927 18.7787C21.1485 19.0514 21.669 19.1969 22.2001 19.2C23.8569 19.2 25.2001 17.8568 25.2001 16.2C25.2001 14.5431 23.8569 13.2 22.2001 13.2C21.669 13.203 21.1485 13.3485 20.6927 13.6212C21.9025 15.1275 21.9025 17.2724 20.6927 18.7787Z" fill="#999999"/>
</svg>
