<svg width="14" height="14" viewBox="0 0 14 14" fill="none" xmlns="http://www.w3.org/2000/svg">
<path d="M7 1.16669C4.55 1.16669 2.33334 3.04502 2.33334 5.95002C2.33334 7.80502 3.7625 9.98669 6.615 12.5009C6.83667 12.6934 7.16917 12.6934 7.39084 12.5009C10.2375 9.98669 11.6667 7.80502 11.6667 5.95002C11.6667 3.04502 9.45 1.16669 7 1.16669ZM7 7.00002C6.35833 7.00002 5.83334 6.47502 5.83334 5.83335C5.83334 5.19169 6.35833 4.66669 7 4.66669C7.64167 4.66669 8.16667 5.19169 8.16667 5.83335C8.16667 6.47502 7.64167 7.00002 7 7.00002Z" fill="#BDBDBD"/>
</svg>
