<?xml version="1.0" standalone="no"?>
<!DOCTYPE svg PUBLIC "-//W3C//DTD SVG 20010904//EN"
 "http://www.w3.org/TR/2001/REC-SVG-20010904/DTD/svg10.dtd">
<svg version="1.0" xmlns="http://www.w3.org/2000/svg"
 width="240.000000pt" height="240.000000pt" viewBox="0 0 240.000000 240.000000"
 preserveAspectRatio="xMidYMid meet">
<metadata>
Created by potrace 1.14, written by Peter Selinger 2001-2017
</metadata>
<g transform="translate(0.000000,240.000000) scale(0.100000,-0.100000)"
fill="#000000" stroke="none">
<path d="M650 2372 c0 -20 -9 -35 -30 -50 -16 -12 -91 -86 -167 -163 -293
-301 -416 -419 -434 -419 -18 0 -19 -17 -19 -485 l0 -485 28 0 c20 0 33 -10
52 -37 14 -20 147 -159 295 -309 212 -214 281 -278 320 -296 49 -22 60 -23
460 -28 l410 -5 32 26 c17 15 46 30 65 34 62 12 68 17 107 73 21 31 110 125
197 207 175 165 288 279 310 311 22 33 30 180 28 569 -1 248 -5 374 -13 404
-11 39 -48 79 -302 331 -257 255 -289 290 -289 318 l0 32 -525 0 -525 0 0 -28z
m755 -386 c83 -41 167 -80 188 -86 21 -7 66 -38 105 -73 37 -34 81 -72 98 -84
41 -29 109 -160 123 -237 22 -119 10 -478 -20 -588 -5 -20 -28 -60 -52 -88
-23 -29 -54 -70 -69 -93 -33 -48 -38 -52 -103 -73 -27 -10 -71 -36 -97 -59
-26 -24 -60 -46 -75 -49 -16 -4 -67 -27 -115 -51 -102 -52 -189 -70 -285 -60
-53 6 -88 18 -172 62 -59 30 -127 70 -152 88 -26 18 -73 46 -104 60 -32 15
-87 55 -124 87 -130 117 -143 167 -142 505 2 266 14 351 67 440 33 56 110 117
203 160 41 19 93 51 117 72 24 21 71 49 104 61 33 12 65 29 71 37 33 39 92 53
199 48 82 -4 90 -7 235 -79z"/>
<path d="M1030 1752 c-34 -13 -202 -136 -227 -167 -16 -19 -53 -82 -83 -141
l-55 -106 1 -89 c2 -80 5 -96 40 -170 55 -116 89 -159 185 -235 126 -98 123
-98 264 -91 134 6 157 12 207 56 19 17 59 43 88 58 37 20 59 40 75 68 12 22
30 41 41 43 78 12 94 51 94 230 0 151 -13 215 -54 273 -14 19 -41 57 -60 85
-38 55 -147 131 -235 164 -46 17 -251 34 -281 22z m200 -367 c38 -20 70 -82
70 -138 0 -56 -32 -105 -84 -131 -32 -16 -44 -17 -77 -7 -70 21 -127 102 -115
164 7 37 59 105 90 117 33 14 84 11 116 -5z"/>
</g>
</svg>
