<svg width="40" height="25" viewBox="0 0 40 25" fill="none" xmlns="http://www.w3.org/2000/svg">
<path d="M1.38771 13.9351H9.08771L10.2324 23.3075C10.2771 23.7475 10.6277 24.0552 11.0677 24.0999H11.1124C11.5077 24.0999 11.86 23.8352 11.9477 23.4399L16.3477 6.41234L21.0126 21.8572C21.1449 22.2525 21.4973 22.5172 21.9373 22.4725C22.3326 22.4278 22.6849 22.1202 22.7296 21.6802L23.6543 13.4953H31.5743C32.059 13.4953 32.4543 13.1 32.4543 12.6153V12.5706C32.4543 12.5259 32.4543 12.4383 32.4096 12.3953C32.4096 12.3506 32.4096 12.3506 32.365 12.3076C32.365 12.2629 32.3203 12.22 32.3203 12.1753C32.3203 12.1753 32.3203 12.1306 32.2756 12.1306C32.2309 12.0859 32.1879 12.0429 32.1432 11.9553L32.0986 11.9106C32.0539 11.8659 32.0109 11.8659 31.9662 11.8229H31.9215C29.5015 10.5476 25.9366 7.42294 25.4966 4.82782C25.3643 3.94782 25.5843 3.15547 26.2443 2.49547C27.6519 1.00018 29.6319 1.96782 31.0394 3.02312C31.3471 3.24312 31.7871 3.24312 32.0947 3.02312C33.5024 1.96782 35.4394 1.04312 36.8471 2.53841C37.3748 3.11077 37.6395 3.72606 37.6395 4.47371C37.5948 5.88136 36.5395 7.59841 34.6471 9.35859C34.2948 9.71093 34.2518 10.2386 34.6025 10.5909C34.9548 10.9433 35.4825 10.9863 35.8348 10.6356C37.4195 9.18328 39.3101 6.89563 39.3995 4.52051C39.4442 3.33286 39.0042 2.23286 38.1242 1.35286C36.4519 -0.407139 34.0766 -0.407138 31.5691 1.30818C29.0167 -0.407121 26.6415 -0.364177 24.9691 1.35286C23.9568 2.40816 23.5168 3.77286 23.7815 5.18051C24.1768 7.5558 26.3767 10.0654 28.6215 11.7805H22.9477C22.5077 11.7805 22.1124 12.1329 22.0677 12.5729L21.54 17.3253L17.1847 2.93774C17.0524 2.54243 16.7447 2.32245 16.3047 2.32245C15.9094 2.32245 15.5571 2.58713 15.4694 2.98245L11.4647 18.5576L10.76 12.9682C10.7153 12.5282 10.32 12.1759 9.88001 12.1759H1.38757C0.902864 12.1759 0.507568 12.5712 0.507568 13.0559C0.507568 13.5406 0.904598 13.9359 1.38757 13.9359L1.38771 13.9351Z" fill="black"/>
</svg>
