<svg width="32" height="32" viewBox="0 0 32 32" fill="none" xmlns="http://www.w3.org/2000/svg">
<path d="M30.6312 19.128H28.5796V2.72805C28.5734 1.66241 27.7093 0.801487 26.6437 0.799927H5.35608C4.28576 0.801489 3.42016 1.67025 3.42016 2.74057V19.1406H1.3686C0.926404 19.1406 0.568604 19.4984 0.568604 19.9406V29.2594C0.568604 30.3297 1.43424 31.1984 2.50452 31.2H29.4953C30.5656 31.1984 31.4312 30.3297 31.4312 29.2594V19.9282C31.4312 19.7157 31.3484 19.5125 31.1984 19.3625C31.0484 19.2125 30.8437 19.1281 30.6312 19.1281L30.6312 19.128ZM5.03116 2.72805C5.03116 2.54211 5.18116 2.39055 5.36866 2.38742H26.6439C26.8298 2.39055 26.9798 2.54211 26.9798 2.72805V19.128H24.5798C24.1845 19.1234 23.8439 19.4093 23.7798 19.7999L23.3439 22.4921H8.66428L8.22836 19.7999C8.1643 19.4093 7.82524 19.1234 7.42836 19.128H5.02836L5.03116 2.72805ZM29.8312 29.2484C29.8312 29.4344 29.6827 29.5859 29.4952 29.5875H2.50443C2.31693 29.5859 2.16849 29.4344 2.16849 29.2484V20.728H6.75609L7.19985 23.4202C7.26392 23.8109 7.60297 24.0968 7.99985 24.0921H24.0407C24.436 24.0968 24.7766 23.8109 24.8407 23.4202L25.2766 20.728H29.8314L29.8312 29.2484Z" fill="#4F46BA"/>
<path d="M18.0563 25.8593H13.9439C13.5017 25.8593 13.1439 26.2186 13.1439 26.6593C13.1439 27.1015 13.5017 27.4593 13.9439 27.4593H18.0563C18.4985 27.4593 18.8563 27.1014 18.8563 26.6593C18.8563 26.2186 18.4985 25.8593 18.0563 25.8593Z" fill="#4F46BA"/>
<path d="M13.1564 11.092L15.2002 8.65924V18.4312C15.2002 18.8734 15.558 19.2312 16.0002 19.2312C16.4424 19.2312 16.8002 18.8734 16.8002 18.4312V8.65924L18.8439 11.0905V11.092C18.9971 11.2717 19.2205 11.3764 19.4564 11.3764C19.6424 11.378 19.8236 11.3155 19.9689 11.1999C20.3048 10.917 20.3501 10.4139 20.0689 10.0764L16.6127 5.94841C16.4548 5.77654 16.233 5.6781 16.0002 5.6781C15.7674 5.6781 15.5455 5.77654 15.3877 5.94841L11.9315 10.064C11.6721 10.4031 11.7252 10.8875 12.0518 11.164C12.3799 11.439 12.8674 11.4078 13.1564 11.0921L13.1564 11.092Z" fill="#4F46BA"/>
</svg>
