<svg width="32" height="32" viewBox="0 0 32 32" fill="none" xmlns="http://www.w3.org/2000/svg">
<path d="M31.3188 6.10325L25.8968 0.681248C25.7858 0.568748 25.6374 0.507812 25.4796 0.507812C25.3233 0.507812 25.1733 0.568748 25.0624 0.681248L16.4108 9.33125L17.2467 10.1656L25.4795 1.93281L30.0655 6.52041L28.6311 7.95477L26.0327 5.35477C25.8014 5.12508 25.4296 5.12508 25.1983 5.35477C24.9671 5.58758 24.9671 5.95945 25.1983 6.18913L27.7968 8.78913L26.153 10.4329L24.5124 8.79225C24.2811 8.55944 23.9092 8.55944 23.678 8.79225C23.4468 9.02194 23.4468 9.39537 23.678 9.62661L25.3186 11.2672L23.6749 12.911L21.0749 10.311C20.8436 10.0798 20.4718 10.0798 20.2405 10.311C20.0093 10.5423 20.0093 10.9141 20.2405 11.1454L22.8405 13.7454L21.8374 14.7485L22.6718 15.5829L31.3234 6.93285C31.5484 6.70785 31.5484 6.33441 31.3187 6.10317L31.3188 6.10325Z" fill="#4F46BA"/>
<path d="M13.7515 22.8344L11.1531 20.236C10.9219 20.0047 10.55 20.0047 10.3187 20.236C10.0875 20.4672 10.0875 20.8391 10.3187 21.0703L12.9172 23.6688L11.2734 25.3141L9.63278 23.6734C9.40153 23.4422 9.0281 23.4422 8.79686 23.6734C8.56561 23.9047 8.56561 24.2766 8.79686 24.5078L10.4375 26.1484L8.79374 27.7906L6.1953 25.1938C5.96405 24.9609 5.59062 24.9609 5.35938 25.1938C5.12813 25.4234 5.12813 25.7969 5.35938 26.0281L7.95782 28.6266L6.52346 30.0625L1.93746 25.4733L10.1687 17.2421L9.3343 16.4077L0.684303 25.0561C0.453051 25.2874 0.453051 25.6592 0.684303 25.8905L6.1063 31.3141C6.21724 31.4235 6.36568 31.4875 6.5235 31.4875C6.67975 31.4875 6.82975 31.4234 6.9407 31.3141L15.5907 22.6641L14.7548 21.8297L13.7515 22.8344Z" fill="#4F46BA"/>
<path d="M28.6752 23.2657L9.11597 3.70649L7.80973 2.39712C6.88473 1.469 5.30193 1.41276 4.44565 2.27212L2.27221 4.44712C1.38157 5.33777 1.43941 6.84713 2.39877 7.80805L23.266 28.6769C23.5378 28.9456 23.991 29.3925 28.9708 30.5206C29.0739 30.5425 29.177 30.555 29.2801 30.555C29.627 30.555 29.9505 30.4237 30.1895 30.1831C30.4958 29.8737 30.6192 29.4222 30.5208 28.9738C29.3926 23.9845 28.9426 23.5345 28.6754 23.2657L28.6752 23.2657ZM3.23437 6.97209C2.73281 6.47209 2.67501 5.71273 3.10624 5.27988L5.27812 3.108C5.46406 2.9205 5.725 2.81738 6.00936 2.81738C6.35624 2.81738 6.7078 2.96894 6.97184 3.23302L7.86248 4.12366L4.1234 7.86274L3.23437 6.97209ZM23.1156 25.3253C22.9093 25.2612 22.6843 25.3159 22.5312 25.4659C22.3781 25.6175 22.3171 25.8393 22.375 26.0472L22.4015 26.1425L4.95952 8.69726L8.70016 4.95818L26.0298 22.291C25.8266 22.2379 25.6126 22.291 25.4641 22.4363C25.311 22.5879 25.2516 22.8097 25.3094 23.0144L25.6172 24.1238L24.5829 23.8082C24.3766 23.7441 24.1516 23.8003 23.9985 23.9519C23.8438 24.1003 23.7845 24.3253 23.8423 24.5331L24.1501 25.6394L23.1156 25.3253ZM24.0999 27.8409L23.8031 26.769L24.8312 27.0847C25.0405 27.1456 25.2718 27.0878 25.4249 26.9331C25.5749 26.7815 25.6343 26.5612 25.5749 26.3565L25.2687 25.2534L26.2999 25.5675C26.5046 25.6316 26.7296 25.5753 26.8843 25.4237C27.0374 25.2753 27.0983 25.0519 27.0405 24.8456L26.7296 23.7253L27.764 24.0284L27.8421 24.105C27.9265 24.1894 28.0765 24.4519 28.3077 25.1519L25.1546 28.3081C24.4484 28.0722 24.1874 27.9253 24.0999 27.8409L24.0999 27.8409ZM29.3515 29.3534C29.3375 29.3659 29.3125 29.3753 29.2828 29.3753L29.2359 29.3675C28.0547 29.1018 27.1484 28.8753 26.4406 28.6847L28.6875 26.4378C28.8781 27.144 29.1031 28.0503 29.3718 29.23C29.3796 29.2831 29.3718 29.3316 29.3515 29.3534L29.3515 29.3534Z" fill="#4F46BA"/>
</svg>
