<svg width="997" height="508" fill="none" xmlns="http://www.w3.org/2000/svg"><path d="M1017.57 174.489L447.458-346.397v-390.767L28.553-760c-3.235 7.552-23.962 29.318-20.728 41.45 3.894 14.51 23.482 9.872 29.173 19.208 6.65 11.002-4.792 55.723-8.207 68.626-6.53 24.442-21.445 44.244-25.76 68.686-7.248 41.033 7.429 37.763 35.225 63.394 46.845 43.233 9.285 88.073 21.086 138.859 9.585 41.39 51.459 62.739 66.794 104.128 11.861 31.876 28.155 40.022 53.435 63.335-.599-14.154-13.358-55.901 10.603-52.214 23.783 3.628 14.617 38.475 19.17 53.046 3.834 12.132 30.97 36.395 8.446 47.575-7.488 3.687-28.814-11.002-37.38-14.927 6.05 18.733 2.216 38.179 11.801 56.079 11.442 21.349 23.782 13.143 38.939 24.739 15.634 11.953 13.957 25.69 7.008 43.769-7.248 18.852-14.736 15.938-3.234 38.655 8.326 16.413 22.463 37.227 34.624 49.715 7.069 7.255 14.737 8.92 21.806 18.197 5.87 7.73 3.594 17.84 10.603 24.798 11.981 11.953 32.289 12.132 41.754 27.772 10.543 17.423-1.438 30.566 29.593 28.96 1.617 34.849 8.267 66.427 7.907 101.274 17.312 6.839 45.287-1.308 63.439-4.936 18.031 24.144 41.333 7.374 61.941 20.517 8.986 5.709 7.129 19.982 12.58 24.977 11.202 10.228 19.469 3.806 33.367 7.374 10.304 2.617 18.271 10.109 28.095 12.845 9.285 2.557 24.561-3.449 31.45 4.698 8.267 9.753-5.571 27.593 6.889 35.443 10.363 6.541 25.219-9.039 35.284-6.78 11.741 2.676 45.407 33.184 53.674 43.233 9.405 11.478 18.871 32.887 24.201 47.634 8.327 23.074 7.189 34.373 24.381 51.262 10.962 10.764.539 11.537 18.39 14.689 11.681 2.081 27.136-6.304 38.939-7.612 24.561-2.676 49.362 1.962 73.563-2.617 22.524-4.281 44.029-11.299 67.152-14.57 20.009-2.854 55.234-.654 72.964-10.109 19.23-10.169 20.97-33.184-6.83-28.901-2.22-14.689 7.67-34.968-3.35-45.136 15.33-20.814 20.9-35.502 23.3-60.955 1.08-11.18 1.56-23.55 7.13-32.946 5.45-9.277 20.78-14.808 23.78-22.777 4.61-12.369-2.76-17.9-8.39-24.798-3.59-4.46-13.84-2.319-16.77-6.244-5.45-7.196-.06-14.629-3.06-21.884-8.74-20.993-19.17-29.259-25.76-53.046.18 3.984.36 8.028.12 11.953" stroke="#fff" stroke-width="2" stroke-linecap="round" stroke-linejoin="round" opacity=".298"/><path d="M736.031 94.891c-8.648 23.408 11.606 31.622 27.815 46.921 4.803 4.533 5.262 12.023.206 16.553-10.872 9.742-52.092-4.43-49.477 8.412 2.7 13.264 37.55 31.822 39.121 33.091 13.793 11.145 18.285 39.419 10.688 54.921-5.405 11.029-41.243 7.312-52.516 3.638-73.824-24.054-40.558-21.185-123.486-28.655-6.348-.572-13.001-.864-19.097.981-6.28 1.901-6.08 9.7-3.973 13.916 6.982 13.971 38.241 37.67 29.829 56.035-2.581 5.635-8.63 9.195-11.353 14.763-2.133 4.363-1.897 9.513-2.845 14.269" stroke="#fff" stroke-width="2"/><path fill-rule="evenodd" clip-rule="evenodd" d="M578.98 337.222c3.623 0 6.56-2.914 6.56-6.507 0-3.594-2.937-6.508-6.56-6.508-3.623 0-6.561 2.914-6.561 6.508 0 3.593 2.938 6.507 6.561 6.507zm88.308 37.041c1.672 0 3.027-1.345 3.027-3.003 0-1.659-1.355-3.004-3.027-3.004-1.673 0-3.028 1.345-3.028 3.004 0 1.658 1.355 3.003 3.028 3.003zm64.591 108.121c1.672 0 3.027-1.345 3.027-3.004s-1.355-3.003-3.027-3.003c-1.673 0-3.028 1.344-3.028 3.003s1.355 3.004 3.028 3.004zM368.554 239.113c1.672 0 3.028-1.345 3.028-3.004 0-1.658-1.356-3.003-3.028-3.003s-3.028 1.345-3.028 3.003c0 1.659 1.356 3.004 3.028 3.004zM736.42 101.96c3.623 0 6.56-2.913 6.56-6.507s-2.937-6.508-6.56-6.508c-3.623 0-6.56 2.914-6.56 6.508 0 3.593 2.937 6.507 6.56 6.507z" fill="#4AF6CD"/><path d="M403.737 322.177l-2.24 11.024h-1.952l-2.032-9.232-2.048 9.232h-1.904l-2.24-11.024h1.488l1.776 9.696 2.128-9.696h1.616l2.176 9.696 1.84-9.696h1.392zm8.134 6.56c0 .245-.01.496-.032.752h-5.376c.064.928.299 1.61.704 2.048.406.437.928.656 1.568.656a3.43 3.43 0 001.12-.176 4.522 4.522 0 001.072-.56l.64.88c-.896.704-1.877 1.056-2.944 1.056-1.173 0-2.09-.384-2.752-1.152-.65-.768-.976-1.824-.976-3.168 0-.875.139-1.648.416-2.32.288-.683.694-1.216 1.216-1.6.534-.384 1.158-.576 1.872-.576 1.12 0 1.979.368 2.576 1.104.598.736.896 1.754.896 3.056zm-1.456-.432c0-.832-.165-1.467-.496-1.904-.33-.438-.826-.656-1.488-.656-1.205 0-1.861.885-1.968 2.656h3.952v-.096zm6.095-3.728c.576 0 1.094.08 1.552.24.459.16.896.4 1.312.72l-.624.928a4.977 4.977 0 00-1.104-.544 3.305 3.305 0 00-1.088-.176c-.48 0-.858.101-1.136.304a.92.92 0 00-.416.8c0 .341.128.608.384.8.267.192.742.378 1.424.56.939.234 1.638.554 2.096.96.47.405.704.96.704 1.664 0 .832-.325 1.466-.976 1.904-.64.437-1.424.656-2.352.656-1.28 0-2.341-.368-3.184-1.104l.784-.896c.715.544 1.504.816 2.368.816.555 0 .992-.112 1.312-.336.331-.235.496-.55.496-.944 0-.288-.058-.518-.176-.688-.117-.182-.32-.336-.608-.464-.288-.139-.709-.283-1.264-.432-.896-.235-1.546-.55-1.952-.944-.394-.395-.592-.896-.592-1.504 0-.438.128-.832.384-1.184.267-.363.63-.64 1.088-.832.47-.203.992-.304 1.568-.304zm9.437 8.24a3.238 3.238 0 01-1.888.576c-.715 0-1.275-.203-1.68-.608-.395-.416-.592-1.014-.592-1.792v-5.088h-1.472v-1.136h1.472v-1.904l1.472-.176v2.08h2l-.16 1.136h-1.84v5.024c0 .437.075.757.224.96.16.192.421.288.784.288.331 0 .704-.112 1.12-.336l.56.976zm8.56-10.832c.736 0 1.365.106 1.888.32.522.202 1.029.522 1.52.96l-.832.928a4.494 4.494 0 00-1.232-.72 3.378 3.378 0 00-1.28-.24c-.576 0-1.051.133-1.424.4-.374.266-.56.656-.56 1.168 0 .32.064.592.192.816.128.213.362.41.704.592.352.181.858.373 1.52.576.693.213 1.269.442 1.728.688.458.245.826.586 1.104 1.024.288.426.432.97.432 1.632 0 .64-.16 1.205-.48 1.696-.31.49-.763.874-1.36 1.152-.587.277-1.286.416-2.096.416-1.526 0-2.774-.475-3.744-1.424l.832-.928c.448.362.901.64 1.36.832.458.181.97.272 1.536.272.682 0 1.248-.166 1.696-.496.448-.342.672-.832.672-1.472 0-.363-.07-.662-.208-.896-.139-.246-.379-.464-.72-.656-.331-.192-.816-.384-1.456-.576-1.131-.342-1.958-.752-2.48-1.232-.523-.48-.784-1.131-.784-1.952 0-.555.144-1.051.432-1.488a2.98 2.98 0 011.232-1.024c.533-.246 1.136-.368 1.808-.368zm9.886 2.592c.768 0 1.366.229 1.792.688.438.458.656 1.088.656 1.888v6.048h-1.472v-5.84c0-.598-.117-1.019-.352-1.264-.224-.246-.554-.368-.992-.368-.437 0-.826.128-1.168.384-.341.256-.661.618-.96 1.088v6h-1.472v-11.808l1.472-.16v4.704c.662-.907 1.494-1.36 2.496-1.36zm8.575 0c1.184 0 2.102.394 2.752 1.184.662.789.992 1.861.992 3.216 0 .874-.149 1.648-.448 2.32a3.57 3.57 0 01-1.296 1.552c-.565.362-1.237.544-2.016.544-1.184 0-2.106-.395-2.768-1.184-.661-.79-.992-1.862-.992-3.216 0-.875.15-1.643.448-2.304.299-.672.731-1.19 1.296-1.552.566-.374 1.243-.56 2.032-.56zm0 1.184c-1.461 0-2.192 1.077-2.192 3.232 0 2.144.726 3.216 2.176 3.216 1.451 0 2.176-1.078 2.176-3.232 0-2.144-.72-3.216-2.16-3.216zm9.84-1.184c.299 0 .576.032.832.096l-.272 1.44a3.032 3.032 0 00-.736-.096c-.523 0-.944.192-1.264.576-.32.384-.571.981-.752 1.792v4.816h-1.472v-8.432h1.264l.144 1.712c.224-.63.528-1.104.912-1.424.384-.32.832-.48 1.344-.48zm8.392 4.16c0 .245-.011.496-.032.752h-5.376c.064.928.298 1.61.704 2.048.405.437.928.656 1.568.656.405 0 .778-.059 1.12-.176a4.56 4.56 0 001.072-.56l.64.88c-.896.704-1.878 1.056-2.944 1.056-1.174 0-2.091-.384-2.752-1.152-.651-.768-.976-1.824-.976-3.168 0-.875.138-1.648.416-2.32.288-.683.693-1.216 1.216-1.6.533-.384 1.157-.576 1.872-.576 1.12 0 1.978.368 2.576 1.104.597.736.896 1.754.896 3.056zm-1.456-.432c0-.832-.166-1.467-.496-1.904-.331-.438-.827-.656-1.488-.656-1.206 0-1.862.885-1.968 2.656h3.952v-.096zm9.993-7.92v14.384h-.352v-14.384h.352zm18.827 12.816h-1.472l-.384-4.976c-.16-1.952-.25-3.451-.272-4.496l-2.384 8.224h-1.424l-2.512-8.24c0 1.333-.069 2.874-.208 4.624l-.368 4.864h-1.44l.912-11.024h2.048l2.32 8.016 2.208-8.016h2.064l.912 11.024zm8.198-1.968c0 .341.058.597.176.768.117.16.293.282.528.368l-.336 1.024c-.438-.054-.79-.176-1.056-.368-.267-.192-.464-.491-.592-.896-.566.842-1.403 1.264-2.512 1.264-.832 0-1.488-.235-1.968-.704-.48-.47-.72-1.083-.72-1.84 0-.896.32-1.584.96-2.064.65-.48 1.568-.72 2.752-.72h1.296v-.624c0-.598-.144-1.024-.432-1.28-.288-.256-.731-.384-1.328-.384-.619 0-1.376.149-2.272.448l-.368-1.072c1.045-.384 2.016-.576 2.912-.576.992 0 1.733.245 2.224.736.49.48.736 1.168.736 2.064v3.856zm-3.456 1.056c.842 0 1.504-.438 1.984-1.312v-1.936h-1.104c-1.558 0-2.336.576-2.336 1.728 0 .501.122.88.368 1.136.245.256.608.384 1.088.384zm8.002 1.104c-.544 0-.976-.16-1.296-.48-.309-.331-.464-.79-.464-1.376v-10.16l1.472-.176v10.304c0 .234.038.405.112.512.086.106.224.16.416.16.203 0 .384-.032.544-.096l.384 1.024a2.398 2.398 0 01-1.168.288zm4.48-8.624v8.432h-1.472v-8.432h1.472zm-.752-4.048c.309 0 .56.096.752.288a.977.977 0 01.288.72.977.977 0 01-.288.72c-.192.181-.443.272-.752.272-.299 0-.544-.091-.736-.272a.977.977 0 01-.288-.72c0-.288.096-.528.288-.72a.996.996 0 01.736-.288zm7.652 3.856c.96 0 1.722.389 2.288 1.168.565.768.848 1.845.848 3.232 0 .874-.134 1.648-.4 2.32-.267.661-.651 1.178-1.152 1.552-.502.362-1.088.544-1.76.544-.886 0-1.632-.374-2.24-1.12l-.144.928h-1.296v-11.824l1.472-.176v4.624c.608-.832 1.402-1.248 2.384-1.248zm-.528 7.648c.65 0 1.157-.262 1.52-.784.373-.534.56-1.355.56-2.464 0-1.142-.171-1.963-.512-2.464-.342-.512-.827-.768-1.456-.768-.747 0-1.403.437-1.968 1.312v4.032c.224.352.496.629.816.832.33.202.677.304 1.04.304zm12.444.976h-1.264l-.112-1.312c-.32.522-.688.906-1.104 1.152-.416.234-.923.352-1.52.352-.736 0-1.312-.224-1.728-.672-.416-.448-.624-1.083-.624-1.904v-6.048h1.472v5.888c0 .576.101.986.304 1.232.202.234.533.352.992.352.821 0 1.525-.486 2.112-1.456v-6.016h1.472v8.432zm3.424-2.032c.32 0 .587.106.8.32.213.213.32.474.32.784 0 .33-.096.709-.288 1.136l-1.072 2.448h-1.056l.64-2.656a1.22 1.22 0 01-.336-.4 1.228 1.228 0 01-.112-.528c0-.31.107-.571.32-.784.213-.214.475-.32.784-.32zm11.63-9.184c.662 0 1.216.085 1.664.256.459.17.923.448 1.392.832l-.832.976c-.672-.544-1.381-.816-2.128-.816-.917 0-1.658.352-2.224 1.056-.554.704-.832 1.834-.832 3.392 0 1.514.278 2.634.832 3.36.555.714 1.291 1.072 2.208 1.072.47 0 .88-.08 1.232-.24.352-.16.726-.384 1.12-.672l.752.96c-.341.352-.778.645-1.312.88-.533.234-1.146.352-1.84.352-.896 0-1.696-.219-2.4-.656-.693-.448-1.237-1.099-1.632-1.952-.384-.864-.576-1.899-.576-3.104 0-1.206.203-2.235.608-3.088.406-.864.955-1.515 1.648-1.952a4.256 4.256 0 012.32-.656zm10.969 11.216l-.832-2.768h-4.176l-.832 2.768h-1.536l3.536-11.024h1.92l3.52 11.024h-1.6zm-4.64-4h3.44l-1.712-5.76-1.728 5.76zm49.159-242.478c.661 0 1.216.085 1.664.256.458.17.922.448 1.392.832l-.832.976c-.672-.544-1.382-.816-2.128-.816-.918 0-1.659.352-2.224 1.056-.555.704-.832 1.834-.832 3.392 0 1.514.277 2.634.832 3.36.554.714 1.29 1.072 2.208 1.072.469 0 .88-.08 1.232-.24.352-.16.725-.384 1.12-.672l.752.96c-.342.352-.779.645-1.312.88-.534.234-1.147.352-1.84.352-.896 0-1.696-.219-2.4-.656-.694-.448-1.238-1.099-1.632-1.952-.384-.864-.576-1.899-.576-3.104 0-1.206.202-2.235.608-3.088.405-.864.954-1.515 1.648-1.952a4.256 4.256 0 012.32-.656zm11.023 11.216h-1.264l-.112-1.312c-.32.522-.688.906-1.104 1.152-.416.234-.923.352-1.52.352-.736 0-1.312-.224-1.728-.672-.416-.448-.624-1.083-.624-1.904v-6.048h1.472v5.888c0 .576.101.986.304 1.232.203.234.533.352.992.352.821 0 1.525-.486 2.112-1.456v-6.016h1.472v8.432zm6.705-8.624c.298 0 .576.032.832.096l-.272 1.44a3.038 3.038 0 00-.736-.096c-.523 0-.944.192-1.264.576-.32.384-.571.981-.752 1.792v4.816h-1.472v-8.432h1.264l.144 1.712c.224-.63.528-1.104.912-1.424.384-.32.832-.48 1.344-.48zm6.171 0c.299 0 .576.032.832.096l-.272 1.44a3.032 3.032 0 00-.736-.096c-.522 0-.944.192-1.264.576-.32.384-.57.981-.752 1.792v4.816h-1.472v-8.432h1.264l.144 1.712c.224-.63.528-1.104.912-1.424.384-.32.832-.48 1.344-.48zm8.392 4.16c0 .245-.011.496-.032.752h-5.376c.064.928.299 1.61.704 2.048.405.437.928.656 1.568.656.405 0 .779-.059 1.12-.176a4.519 4.519 0 001.072-.56l.64.88c-.896.704-1.877 1.056-2.944 1.056-1.173 0-2.091-.384-2.752-1.152-.651-.768-.976-1.824-.976-3.168 0-.875.139-1.648.416-2.32.288-.683.693-1.216 1.216-1.6.533-.384 1.157-.576 1.872-.576 1.12 0 1.979.368 2.576 1.104.597.736.896 1.754.896 3.056zm-1.456-.432c0-.832-.165-1.467-.496-1.904-.331-.438-.827-.656-1.488-.656-1.205 0-1.861.885-1.968 2.656h3.952v-.096zm7.775-3.728c.768 0 1.365.229 1.792.688.437.458.656 1.088.656 1.888v6.048h-1.472v-5.84c0-.598-.112-1.019-.336-1.264-.224-.246-.555-.368-.992-.368a1.92 1.92 0 00-1.184.384c-.342.256-.662.624-.96 1.104v5.984h-1.472v-8.432h1.264l.128 1.248c.298-.448.666-.8 1.104-1.056a2.914 2.914 0 011.472-.384zm9.663 8.24a3.238 3.238 0 01-1.888.576c-.715 0-1.275-.203-1.68-.608-.395-.416-.592-1.014-.592-1.792v-5.088h-1.472v-1.136h1.472v-1.904l1.472-.176v2.08h2l-.16 1.136h-1.84v5.024c0 .437.074.757.224.96.16.192.421.288.784.288.33 0 .704-.112 1.12-.336l.56.976zm7.359-10.64v9.696h4.528l-.176 1.328h-5.872V86.915h1.52zm9.131 2.4c1.184 0 2.101.394 2.752 1.184.661.789.992 1.861.992 3.216 0 .874-.149 1.648-.448 2.32-.299.661-.731 1.178-1.296 1.552-.565.362-1.237.544-2.016.544-1.184 0-2.107-.395-2.768-1.184-.661-.79-.992-1.862-.992-3.216 0-.875.149-1.643.448-2.304.299-.672.731-1.19 1.296-1.552.565-.374 1.243-.56 2.032-.56zm0 1.184c-1.461 0-2.192 1.077-2.192 3.232 0 2.144.725 3.216 2.176 3.216s2.176-1.078 2.176-3.232c0-2.144-.72-3.216-2.16-3.216zm9.248-1.184c.501 0 .96.074 1.376.224.416.138.816.368 1.2.688l-.704.928a3.353 3.353 0 00-.88-.464 2.57 2.57 0 00-.928-.16c-.683 0-1.216.272-1.6.816-.374.544-.56 1.349-.56 2.416 0 1.066.186 1.856.56 2.368.373.501.906.752 1.6.752.33 0 .634-.048.912-.144a5.05 5.05 0 00.928-.496l.672.96c-.768.618-1.627.928-2.576.928-1.142 0-2.043-.384-2.704-1.152-.651-.768-.976-1.83-.976-3.184 0-.896.149-1.68.448-2.352.298-.672.72-1.195 1.264-1.568.554-.374 1.21-.56 1.968-.56zm10.092 6.656c0 .341.059.597.176.768.117.16.293.282.528.368l-.336 1.024c-.437-.054-.789-.176-1.056-.368s-.464-.491-.592-.896c-.565.842-1.403 1.264-2.512 1.264-.832 0-1.488-.235-1.968-.704-.48-.47-.72-1.083-.72-1.84 0-.896.32-1.584.96-2.064.651-.48 1.568-.72 2.752-.72h1.296v-.624c0-.598-.144-1.024-.432-1.28-.288-.256-.731-.384-1.328-.384-.619 0-1.376.149-2.272.448l-.368-1.072c1.045-.384 2.016-.576 2.912-.576.992 0 1.733.245 2.224.736.491.48.736 1.168.736 2.064v3.856zm-3.456 1.056c.843 0 1.504-.438 1.984-1.312v-1.936h-1.104c-1.557 0-2.336.576-2.336 1.728 0 .501.123.88.368 1.136.245.256.608.384 1.088.384zm10.735.528a3.238 3.238 0 01-1.888.576c-.715 0-1.275-.203-1.68-.608-.395-.416-.592-1.014-.592-1.792v-5.088h-1.472v-1.136h1.472v-1.904l1.472-.176v2.08h2l-.16 1.136h-1.84v5.024c0 .437.075.757.224.96.16.192.421.288.784.288.331 0 .704-.112 1.12-.336l.56.976zm2.997-8.048v8.432h-1.472v-8.432h1.472zm-.752-4.048c.31 0 .56.096.752.288a.977.977 0 01.288.72.977.977 0 01-.288.72c-.192.181-.442.272-.752.272-.298 0-.544-.091-.736-.272a.977.977 0 01-.288-.72c0-.288.096-.528.288-.72a.998.998 0 01.736-.288zm6.964 3.856c1.184 0 2.101.394 2.752 1.184.661.789.992 1.861.992 3.216 0 .874-.149 1.648-.448 2.32-.299.661-.731 1.178-1.296 1.552-.565.362-1.237.544-2.016.544-1.184 0-2.107-.395-2.768-1.184-.661-.79-.992-1.862-.992-3.216 0-.875.149-1.643.448-2.304.299-.672.731-1.19 1.296-1.552.565-.374 1.243-.56 2.032-.56zm0 1.184c-1.461 0-2.192 1.077-2.192 3.232 0 2.144.725 3.216 2.176 3.216s2.176-1.078 2.176-3.232c0-2.144-.72-3.216-2.16-3.216zm10.144-1.184c.768 0 1.365.229 1.792.688.437.458.656 1.088.656 1.888v6.048h-1.472v-5.84c0-.598-.112-1.019-.336-1.264-.224-.246-.555-.368-.992-.368a1.92 1.92 0 00-1.184.384c-.342.256-.662.624-.96 1.104v5.984h-1.472v-8.432h1.264l.128 1.248c.298-.448.666-.8 1.104-1.056a2.914 2.914 0 011.472-.384z" fill="#fff"/></svg>