<svg width="33" height="32" viewBox="0 0 33 32" fill="none" xmlns="http://www.w3.org/2000/svg">
<path fill-rule="evenodd" clip-rule="evenodd" d="M21.3416 7.00036C19.1507 6.97049 17.2927 8.80646 17.2927 11.0005V13.0005C17.2927 13.2944 17.1634 13.5735 16.9391 13.7635C16.7148 13.9535 16.4183 14.0352 16.1283 13.9869C12.9233 13.4527 10.0328 11.8634 7.97618 10.4495C7.21537 9.92644 6.55941 9.42092 6.03325 8.99003C5.67438 13.2106 6.94355 16.1265 8.34776 18.0323C9.15524 19.1281 10.0202 19.9061 10.6795 20.4078C11.0085 20.6581 11.2844 20.8381 11.4731 20.953C11.5673 21.0105 11.6396 21.0515 11.6856 21.0768C11.7085 21.0894 11.7249 21.0981 11.7342 21.103L11.7417 21.1069L11.7409 21.1065C11.9969 21.2349 12.1857 21.4669 12.2592 21.7438C12.3328 22.021 12.2839 22.3165 12.1248 22.5552C11.0072 24.2315 9.36479 25.4484 8.0572 26.2329C7.82367 26.3731 7.59842 26.5008 7.3857 26.6162C8.02678 26.8237 8.96264 27.0005 10.2927 27.0005H10.2932C14.1031 27.0023 17.7707 25.5532 20.5503 22.9477C23.33 20.3422 25.013 16.7759 25.2573 12.9738C25.2728 12.7313 25.3762 12.5027 25.5481 12.3309L27.8785 10.0005H25.8802C25.4826 10.0005 25.1227 9.76485 24.9637 9.40039C24.6555 8.69419 24.15 8.09202 23.5078 7.66627C22.8656 7.24051 22.1141 7.00929 21.3437 7.00039L21.3416 7.00036ZM5.2927 26.5005C4.46065 27.0552 4.46116 27.0559 4.46167 27.0567L4.46271 27.0582L4.46487 27.0614L4.46953 27.0683L4.48019 27.0835C4.4879 27.0944 4.49683 27.1066 4.50704 27.1201C4.52748 27.1472 4.55303 27.1793 4.58423 27.2157C4.64668 27.2886 4.73142 27.3782 4.84249 27.4781C5.06534 27.6787 5.38989 27.9171 5.84549 28.1449C6.75856 28.6014 8.16689 29.0004 10.2922 29.0005M4.94158 25.5641C4.94133 25.5642 4.94107 25.5643 4.94082 25.5644C4.65545 25.6717 4.43458 25.9033 4.34099 26.1935C4.24731 26.4839 4.29138 26.8012 4.46065 27.0552L5.2927 26.5005M4.94158 25.5641L4.94576 25.5625L4.97199 25.5523C4.99659 25.5426 5.03511 25.5272 5.08613 25.5061C5.18823 25.4639 5.33998 25.3989 5.5299 25.3112C5.91049 25.1356 6.44009 24.8708 7.02821 24.518C7.96285 23.9572 8.99896 23.2013 9.82821 22.2632C10.0645 22.4299 10.2697 22.5619 10.4327 22.6611C10.5532 22.7346 10.6509 22.7902 10.7211 22.8289C10.7563 22.8482 10.7846 22.8633 10.8055 22.8743L10.8312 22.8877L10.8398 22.892L10.843 22.8936L10.8444 22.8943M5.2927 7.00046C5.99981 6.29335 5.99966 6.2932 5.99952 6.29306L6.00066 6.29419L6.00868 6.30211L6.04582 6.33833C6.07985 6.37126 6.13221 6.42138 6.20193 6.48652C6.34141 6.61683 6.55011 6.80696 6.82023 7.03956C7.36109 7.5053 8.14479 8.13836 9.10923 8.80141C10.7799 9.94997 12.9428 11.1538 15.2927 11.7649V11.0005C15.2927 7.6948 18.0591 4.956 21.3678 5.00054C22.5231 5.01407 23.6499 5.36089 24.6129 5.99934C25.3887 6.51366 26.0315 7.1996 26.4938 8.00046H30.2927C30.6972 8.00046 31.0618 8.2441 31.2166 8.61777C31.3714 8.99145 31.2858 9.42157 30.9998 9.70756L27.2244 13.483C26.8626 17.6492 24.9756 21.5409 21.9181 24.4069C18.7676 27.36 14.6108 29.0025 10.2927 29.0005M5.2927 7.00046L5.99981 6.29335C5.99966 6.29319 5.9995 6.29304 5.99934 6.29288C5.73635 6.03023 5.34935 5.93511 4.99454 6.04594C4.63951 6.15685 4.37537 6.45563 4.30883 6.82157C3.25658 12.609 4.83442 16.6357 6.73765 19.2187C7.68017 20.4978 8.69019 21.4073 9.46843 21.9994C9.59466 22.0955 9.715 22.1833 9.82821 22.2632" fill="#858584"/>
</svg>
